{
	"patcher" : 	{
		"fileversion" : 1,
		"rect" : [ 422.0, 52.0, 253.0, 315.0 ],
		"bglocked" : 0,
		"defrect" : [ 422.0, 52.0, 253.0, 315.0 ],
		"openrect" : [ 0.0, 0.0, 0.0, 0.0 ],
		"openinpresentation" : 0,
		"default_fontsize" : 12.0,
		"default_fontface" : 0,
		"default_fontname" : "Hiragino Kaku Gothic ProN W3",
		"gridonopen" : 0,
		"gridsize" : [ 15.0, 15.0 ],
		"gridsnaponopen" : 0,
		"toolbarvisible" : 1,
		"boxanimatetime" : 200,
		"imprint" : 0,
		"enablehscroll" : 1,
		"enablevscroll" : 1,
		"devicewidth" : 0.0,
		"boxes" : [ 			{
				"box" : 				{
					"maxclass" : "comment",
					"text" : "操作手順",
					"patching_rect" : [ 30.0, 15.0, 150.0, 24.0 ],
					"numoutlets" : 0,
					"id" : "obj-4",
					"fontname" : "Hiragino Kaku Gothic ProN W3",
					"fontsize" : 12.0,
					"numinlets" : 1
				}

			}
, 			{
				"box" : 				{
					"maxclass" : "message",
					"text" : "open",
					"patching_rect" : [ 30.0, 75.0, 40.0, 22.0 ],
					"numoutlets" : 1,
					"id" : "obj-3",
					"fontname" : "Hiragino Kaku Gothic ProN W3",
					"outlettype" : [ "" ],
					"fontsize" : 12.0,
					"numinlets" : 2
				}

			}
, 			{
				"box" : 				{
					"maxclass" : "newobj",
					"text" : "sfrecord~ 2",
					"patching_rect" : [ 75.0, 255.0, 80.0, 24.0 ],
					"numoutlets" : 1,
					"id" : "obj-1",
					"fontname" : "Hiragino Kaku Gothic ProN W3",
					"outlettype" : [ "signal" ],
					"fontsize" : 12.0,
					"numinlets" : 2
				}

			}
, 			{
				"box" : 				{
					"maxclass" : "meter~",
					"patching_rect" : [ 150.0, 150.0, 13.0, 74.0 ],
					"numoutlets" : 1,
					"id" : "obj-22",
					"outlettype" : [ "float" ],
					"numinlets" : 1
				}

			}
, 			{
				"box" : 				{
					"maxclass" : "gain~",
					"patching_rect" : [ 105.0, 150.0, 27.0, 75.0 ],
					"numoutlets" : 2,
					"id" : "obj-21",
					"outlettype" : [ "signal", "int" ],
					"numinlets" : 2
				}

			}
, 			{
				"box" : 				{
					"maxclass" : "meter~",
					"patching_rect" : [ 135.0, 150.0, 13.0, 74.0 ],
					"numoutlets" : 1,
					"id" : "obj-19",
					"outlettype" : [ "float" ],
					"numinlets" : 1
				}

			}
, 			{
				"box" : 				{
					"maxclass" : "gain~",
					"patching_rect" : [ 75.0, 150.0, 27.0, 75.0 ],
					"numoutlets" : 2,
					"id" : "obj-5",
					"outlettype" : [ "signal", "int" ],
					"numinlets" : 2
				}

			}
, 			{
				"box" : 				{
					"maxclass" : "comment",
					"text" : "1       2         3",
					"patching_rect" : [ 30.0, 45.0, 166.0, 34.0 ],
					"numoutlets" : 0,
					"id" : "obj-2",
					"fontname" : "Arial",
					"fontsize" : 24.0,
					"numinlets" : 1
				}

			}
, 			{
				"box" : 				{
					"maxclass" : "ezadc~",
					"varname" : "autohelp_dac",
					"patching_rect" : [ 75.0, 75.0, 49.0, 49.0 ],
					"numoutlets" : 2,
					"id" : "obj-31",
					"local" : 1,
					"outlettype" : [ "signal", "signal" ],
					"numinlets" : 1
				}

			}
, 			{
				"box" : 				{
					"maxclass" : "toggle",
					"patching_rect" : [ 165.0, 75.0, 28.0, 28.0 ],
					"numoutlets" : 1,
					"id" : "obj-27",
					"outlettype" : [ "int" ],
					"numinlets" : 1
				}

			}
 ],
		"lines" : [ 			{
				"patchline" : 				{
					"source" : [ "obj-3", 0 ],
					"destination" : [ "obj-1", 0 ],
					"hidden" : 0,
					"midpoints" : [ 39.5, 229.0, 84.5, 229.0 ]
				}

			}
, 			{
				"patchline" : 				{
					"source" : [ "obj-27", 0 ],
					"destination" : [ "obj-1", 0 ],
					"hidden" : 0,
					"midpoints" : [ 174.5, 229.0, 84.5, 229.0 ]
				}

			}
, 			{
				"patchline" : 				{
					"source" : [ "obj-21", 0 ],
					"destination" : [ "obj-1", 1 ],
					"hidden" : 0,
					"midpoints" : [ 114.5, 239.5, 145.5, 239.5 ]
				}

			}
, 			{
				"patchline" : 				{
					"source" : [ "obj-5", 0 ],
					"destination" : [ "obj-1", 0 ],
					"hidden" : 0,
					"midpoints" : [  ]
				}

			}
, 			{
				"patchline" : 				{
					"source" : [ "obj-31", 1 ],
					"destination" : [ "obj-21", 0 ],
					"hidden" : 0,
					"midpoints" : [ 114.5, 136.5, 114.5, 136.5 ]
				}

			}
, 			{
				"patchline" : 				{
					"source" : [ "obj-31", 0 ],
					"destination" : [ "obj-5", 0 ],
					"hidden" : 0,
					"midpoints" : [ 84.5, 136.5, 84.5, 136.5 ]
				}

			}
, 			{
				"patchline" : 				{
					"source" : [ "obj-5", 1 ],
					"destination" : [ "obj-21", 0 ],
					"hidden" : 1,
					"midpoints" : [  ]
				}

			}
, 			{
				"patchline" : 				{
					"source" : [ "obj-5", 0 ],
					"destination" : [ "obj-19", 0 ],
					"hidden" : 1,
					"midpoints" : [  ]
				}

			}
, 			{
				"patchline" : 				{
					"source" : [ "obj-21", 0 ],
					"destination" : [ "obj-22", 0 ],
					"hidden" : 1,
					"midpoints" : [  ]
				}

			}
 ]
	}

}
