#N canvas 356 27 612 319 10;
#X obj 382 123 gemwin;
#X obj 93 61 gemhead;
#X obj 93 185 pix_texture;
#X text 170 183 make texture;
#X msg 122 98 device 0;
#X obj 93 139 pix_video;
#X msg 185 97 device 1;
#X text 245 95 select device;
#X text 158 137 capture camera;
#X text 37 13 Capture live camera example;
#X msg 382 34 dimen 640 480 \, create \, 1;
#X obj 93 228 rectangle 4 3;
#X obj 403 92 tgl 15 0 empty empty empty 17 7 0 10 -262144 -1 -1 0
1;
#X msg 396 65 destroy;
#X connect 1 0 5 0;
#X connect 2 0 11 0;
#X connect 4 0 5 0;
#X connect 5 0 2 0;
#X connect 6 0 5 0;
#X connect 10 0 0 0;
#X connect 12 0 0 0;
#X connect 13 0 0 0;
