#N canvas 515 33 568 479 10;
#X obj 393 171 gemwin;
#X obj -15 390 pix_texture;
#X obj -15 420 rectangle 4 3;
#X msg 393 84 create \, 1;
#X obj 58 119 openpanel;
#X obj 58 91 bng 15 250 50 0 empty empty empty 17 7 0 10 -262144 -1
-1;
#X msg 58 149 open \$1;
#X msg 57 208 auto \$1;
#X obj 57 182 tgl 15 0 empty empty empty 17 7 0 10 -262144 -1 -1 0
1;
#X text 62 388 make texture;
#X obj -15 150 gemhead 0;
#X obj -15 246 pix_film;
#X obj -15 354 pix_mix 0;
#X obj 91 324 hsl 128 15 0 1 0 0 empty empty empty -2 -8 0 10 -204800
-1 -1 0 1;
#X text 80 86 load movie 1;
#X text 76 179 play movie 1;
#X obj 251 116 openpanel;
#X obj 251 88 bng 15 250 50 0 empty empty empty 17 7 0 10 -262144 -1
-1;
#X msg 251 146 open \$1;
#X msg 250 205 auto \$1;
#X obj 250 179 tgl 15 0 empty empty empty 17 7 0 10 -262144 -1 -1 0
1;
#X obj 178 147 gemhead 0;
#X obj 178 243 pix_film;
#X obj 407 144 tgl 15 0 empty empty empty 17 7 0 10 -262144 -1 -1 0
1;
#X msg 403 109 destroy;
#X text 273 83 load movie 2;
#X text 269 176 play movie 2;
#X text 6 28 Mix movie file example;
#X text 102 305 video cross fader;
#X connect 1 0 2 0;
#X connect 3 0 0 0;
#X connect 4 0 6 0;
#X connect 5 0 4 0;
#X connect 6 0 11 0;
#X connect 7 0 11 0;
#X connect 8 0 7 0;
#X connect 10 0 11 0;
#X connect 11 0 12 0;
#X connect 12 0 1 0;
#X connect 13 0 12 2;
#X connect 16 0 18 0;
#X connect 17 0 16 0;
#X connect 18 0 22 0;
#X connect 19 0 22 0;
#X connect 20 0 19 0;
#X connect 21 0 22 0;
#X connect 22 0 12 1;
#X connect 23 0 0 0;
#X connect 24 0 0 0;
