#N canvas 227 36 554 508 12;
#X obj 43 397 catch~ sum;
#X obj 291 215 s frequency;
#X obj 405 215 s duration;
#X floatatom 405 165 0 0 0 0 - - -;
#X obj 405 190 * 100;
#X obj 291 190 mtof;
#X floatatom 291 165 0 0 0 0 - - -;
#X text 329 164 pitch;
#X obj 43 436 output~;
#X obj 42 112 partial 1 1 0.56 0;
#X obj 291 110 loadbang;
#X msg 291 133 72;
#X msg 405 135 40;
#X obj 294 263 bng 25 250 50 0 empty empty empty 0 -6 0 8 -262144 -1
-1;
#X text 327 265 <-- click to play a note;
#X obj 294 299 s trigger;
#X obj 42 137 partial 0.67 0.9 0.56 1;
#X obj 42 162 partial 1 0.65 0.92 0;
#X obj 42 187 partial 1.8 0.55 0.92 1.7;
#X obj 42 212 partial 2.67 0.325 1.19 0;
#X obj 42 237 partial 1.67 0.35 1.7 0;
#X obj 42 262 partial 1.46 0.25 2 0;
#X obj 42 287 partial 1.33 0.2 2.74 0;
#X obj 42 312 partial 1.33 0.15 3 0;
#X obj 42 337 partial 1 0.1 3.76 0;
#X obj 42 362 partial 1.33 0.075 4.07 0;
#X text 444 165 duration;
#X text 39 30 ADDITIVE SYNTHESIS;
#X text 445 171;
#X text 40 86 partial amp dur freq dtune;
#X connect 0 0 8 0;
#X connect 0 0 8 1;
#X connect 3 0 4 0;
#X connect 4 0 2 0;
#X connect 5 0 1 0;
#X connect 6 0 5 0;
#X connect 10 0 11 0;
#X connect 10 0 12 0;
#X connect 11 0 6 0;
#X connect 12 0 3 0;
#X connect 13 0 15 0;
