{
	"patcher" : 	{
		"fileversion" : 1,
		"rect" : [ 432.0, 55.0, 522.0, 455.0 ],
		"bglocked" : 0,
		"defrect" : [ 432.0, 55.0, 522.0, 455.0 ],
		"openrect" : [ 0.0, 0.0, 0.0, 0.0 ],
		"openinpresentation" : 0,
		"default_fontsize" : 12.0,
		"default_fontface" : 0,
		"default_fontname" : "Hiragino Kaku Gothic ProN W3",
		"gridonopen" : 0,
		"gridsize" : [ 15.0, 15.0 ],
		"gridsnaponopen" : 0,
		"toolbarvisible" : 1,
		"boxanimatetime" : 200,
		"imprint" : 0,
		"enablehscroll" : 1,
		"enablevscroll" : 1,
		"devicewidth" : 0.0,
		"boxes" : [ 			{
				"box" : 				{
					"maxclass" : "message",
					"text" : "clearall",
					"outlettype" : [ "" ],
					"patching_rect" : [ 375.0, 30.0, 45.0, 18.0 ],
					"id" : "obj-12",
					"fontname" : "Arial",
					"numinlets" : 2,
					"numoutlets" : 1,
					"fontsize" : 11.595187
				}

			}
, 			{
				"box" : 				{
					"maxclass" : "newobj",
					"text" : "tri~",
					"outlettype" : [ "signal" ],
					"patching_rect" : [ 270.0, 180.0, 46.0, 24.0 ],
					"id" : "obj-11",
					"fontname" : "Hiragino Kaku Gothic ProN W3",
					"numinlets" : 3,
					"numoutlets" : 1,
					"fontsize" : 12.0
				}

			}
, 			{
				"box" : 				{
					"maxclass" : "newobj",
					"text" : "saw~",
					"outlettype" : [ "signal" ],
					"patching_rect" : [ 210.0, 180.0, 40.0, 24.0 ],
					"id" : "obj-10",
					"fontname" : "Hiragino Kaku Gothic ProN W3",
					"numinlets" : 2,
					"numoutlets" : 1,
					"fontsize" : 12.0
				}

			}
, 			{
				"box" : 				{
					"maxclass" : "number",
					"outlettype" : [ "int", "bang" ],
					"patching_rect" : [ 30.0, 180.0, 50.0, 24.0 ],
					"id" : "obj-9",
					"fontname" : "Hiragino Kaku Gothic ProN W3",
					"numinlets" : 1,
					"numoutlets" : 2,
					"fontsize" : 12.0
				}

			}
, 			{
				"box" : 				{
					"maxclass" : "newobj",
					"text" : "selector~ 4",
					"outlettype" : [ "signal" ],
					"patching_rect" : [ 30.0, 225.0, 259.0, 24.0 ],
					"id" : "obj-8",
					"fontname" : "Hiragino Kaku Gothic ProN W3",
					"numinlets" : 5,
					"numoutlets" : 1,
					"fontsize" : 12.0
				}

			}
, 			{
				"box" : 				{
					"maxclass" : "scope~",
					"patching_rect" : [ 120.0, 285.0, 238.0, 70.0 ],
					"bgcolor" : [ 0.529412, 0.529412, 0.529412, 1.0 ],
					"rounded" : 0,
					"id" : "obj-25",
					"bufsize" : 200,
					"numinlets" : 2,
					"trigger" : 1,
					"calccount" : 2,
					"numoutlets" : 0
				}

			}
, 			{
				"box" : 				{
					"maxclass" : "newobj",
					"text" : "mtof",
					"outlettype" : [ "" ],
					"patching_rect" : [ 30.0, 120.0, 39.0, 24.0 ],
					"id" : "obj-6",
					"fontname" : "Hiragino Kaku Gothic ProN W3",
					"numinlets" : 1,
					"numoutlets" : 1,
					"fontsize" : 12.0
				}

			}
, 			{
				"box" : 				{
					"maxclass" : "kslider",
					"outlettype" : [ "int", "int" ],
					"patching_rect" : [ 30.0, 60.0, 336.0, 53.0 ],
					"id" : "obj-4",
					"numinlets" : 2,
					"numoutlets" : 2
				}

			}
, 			{
				"box" : 				{
					"maxclass" : "preset",
					"outlettype" : [ "preset", "int", "preset", "int" ],
					"patching_rect" : [ 375.0, 60.0, 124.0, 30.0 ],
					"id" : "obj-3",
					"numinlets" : 1,
					"numoutlets" : 4,
					"preset_data" : [ 						{
							"number" : 1,
							"data" : [ 5, "obj-4", "kslider", "int", 57, 5, "obj-9", "number", "int", 1 ]
						}
, 						{
							"number" : 2,
							"data" : [ 5, "obj-4", "kslider", "int", 57, 5, "obj-9", "number", "int", 2 ]
						}
, 						{
							"number" : 3,
							"data" : [ 5, "obj-4", "kslider", "int", 57, 5, "obj-9", "number", "int", 3 ]
						}
, 						{
							"number" : 4,
							"data" : [ 5, "obj-4", "kslider", "int", 57, 5, "obj-9", "number", "int", 4 ]
						}
 ]
				}

			}
, 			{
				"box" : 				{
					"maxclass" : "meter~",
					"outlettype" : [ "float" ],
					"patching_rect" : [ 105.0, 285.0, 13.0, 74.0 ],
					"id" : "obj-22",
					"numinlets" : 1,
					"numoutlets" : 1
				}

			}
, 			{
				"box" : 				{
					"maxclass" : "gain~",
					"outlettype" : [ "signal", "int" ],
					"patching_rect" : [ 60.0, 285.0, 27.0, 75.0 ],
					"id" : "obj-21",
					"numinlets" : 2,
					"numoutlets" : 2
				}

			}
, 			{
				"box" : 				{
					"maxclass" : "meter~",
					"outlettype" : [ "float" ],
					"patching_rect" : [ 90.0, 285.0, 13.0, 74.0 ],
					"id" : "obj-19",
					"numinlets" : 1,
					"numoutlets" : 1
				}

			}
, 			{
				"box" : 				{
					"maxclass" : "ezdac~",
					"patching_rect" : [ 30.0, 375.0, 49.0, 49.0 ],
					"id" : "obj-14",
					"numinlets" : 2,
					"numoutlets" : 0
				}

			}
, 			{
				"box" : 				{
					"maxclass" : "gain~",
					"outlettype" : [ "signal", "int" ],
					"patching_rect" : [ 30.0, 285.0, 27.0, 75.0 ],
					"id" : "obj-5",
					"numinlets" : 2,
					"numoutlets" : 2
				}

			}
, 			{
				"box" : 				{
					"maxclass" : "newobj",
					"text" : "rect~",
					"outlettype" : [ "signal" ],
					"patching_rect" : [ 150.0, 180.0, 46.0, 24.0 ],
					"id" : "obj-2",
					"fontname" : "Hiragino Kaku Gothic ProN W3",
					"numinlets" : 3,
					"numoutlets" : 1,
					"fontsize" : 12.0
				}

			}
, 			{
				"box" : 				{
					"maxclass" : "newobj",
					"text" : "cycle~",
					"outlettype" : [ "signal" ],
					"patching_rect" : [ 90.0, 180.0, 47.0, 24.0 ],
					"id" : "obj-1",
					"fontname" : "Hiragino Kaku Gothic ProN W3",
					"numinlets" : 2,
					"numoutlets" : 1,
					"fontsize" : 12.0
				}

			}
 ],
		"lines" : [ 			{
				"patchline" : 				{
					"source" : [ "obj-9", 0 ],
					"destination" : [ "obj-8", 0 ],
					"hidden" : 0,
					"midpoints" : [  ]
				}

			}
, 			{
				"patchline" : 				{
					"source" : [ "obj-8", 0 ],
					"destination" : [ "obj-5", 0 ],
					"hidden" : 0,
					"midpoints" : [  ]
				}

			}
, 			{
				"patchline" : 				{
					"source" : [ "obj-8", 0 ],
					"destination" : [ "obj-21", 0 ],
					"hidden" : 0,
					"midpoints" : [  ]
				}

			}
, 			{
				"patchline" : 				{
					"source" : [ "obj-1", 0 ],
					"destination" : [ "obj-8", 1 ],
					"hidden" : 0,
					"midpoints" : [  ]
				}

			}
, 			{
				"patchline" : 				{
					"source" : [ "obj-2", 0 ],
					"destination" : [ "obj-8", 2 ],
					"hidden" : 0,
					"midpoints" : [  ]
				}

			}
, 			{
				"patchline" : 				{
					"source" : [ "obj-10", 0 ],
					"destination" : [ "obj-8", 3 ],
					"hidden" : 0,
					"midpoints" : [  ]
				}

			}
, 			{
				"patchline" : 				{
					"source" : [ "obj-11", 0 ],
					"destination" : [ "obj-8", 4 ],
					"hidden" : 0,
					"midpoints" : [  ]
				}

			}
, 			{
				"patchline" : 				{
					"source" : [ "obj-6", 0 ],
					"destination" : [ "obj-11", 0 ],
					"hidden" : 0,
					"midpoints" : [ 39.5, 161.5, 279.5, 161.5 ]
				}

			}
, 			{
				"patchline" : 				{
					"source" : [ "obj-6", 0 ],
					"destination" : [ "obj-10", 0 ],
					"hidden" : 0,
					"midpoints" : [ 39.5, 161.5, 219.5, 161.5 ]
				}

			}
, 			{
				"patchline" : 				{
					"source" : [ "obj-6", 0 ],
					"destination" : [ "obj-2", 0 ],
					"hidden" : 0,
					"midpoints" : [ 39.5, 161.5, 159.5, 161.5 ]
				}

			}
, 			{
				"patchline" : 				{
					"source" : [ "obj-6", 0 ],
					"destination" : [ "obj-1", 0 ],
					"hidden" : 0,
					"midpoints" : [ 39.5, 161.5, 99.5, 161.5 ]
				}

			}
, 			{
				"patchline" : 				{
					"source" : [ "obj-12", 0 ],
					"destination" : [ "obj-3", 0 ],
					"hidden" : 0,
					"midpoints" : [  ]
				}

			}
, 			{
				"patchline" : 				{
					"source" : [ "obj-21", 0 ],
					"destination" : [ "obj-25", 0 ],
					"hidden" : 1,
					"midpoints" : [  ]
				}

			}
, 			{
				"patchline" : 				{
					"source" : [ "obj-4", 0 ],
					"destination" : [ "obj-6", 0 ],
					"hidden" : 0,
					"midpoints" : [  ]
				}

			}
, 			{
				"patchline" : 				{
					"source" : [ "obj-3", 2 ],
					"destination" : [ "obj-21", 0 ],
					"hidden" : 0,
					"midpoints" : [ 454.5, 267.5, 69.5, 267.5 ]
				}

			}
, 			{
				"patchline" : 				{
					"source" : [ "obj-3", 2 ],
					"destination" : [ "obj-5", 0 ],
					"hidden" : 0,
					"midpoints" : [ 454.5, 267.5, 39.5, 267.5 ]
				}

			}
, 			{
				"patchline" : 				{
					"source" : [ "obj-5", 0 ],
					"destination" : [ "obj-14", 0 ],
					"hidden" : 0,
					"midpoints" : [  ]
				}

			}
, 			{
				"patchline" : 				{
					"source" : [ "obj-5", 1 ],
					"destination" : [ "obj-21", 0 ],
					"hidden" : 1,
					"midpoints" : [  ]
				}

			}
, 			{
				"patchline" : 				{
					"source" : [ "obj-21", 0 ],
					"destination" : [ "obj-14", 1 ],
					"hidden" : 0,
					"midpoints" : [  ]
				}

			}
, 			{
				"patchline" : 				{
					"source" : [ "obj-5", 0 ],
					"destination" : [ "obj-19", 0 ],
					"hidden" : 1,
					"midpoints" : [  ]
				}

			}
, 			{
				"patchline" : 				{
					"source" : [ "obj-21", 0 ],
					"destination" : [ "obj-22", 0 ],
					"hidden" : 1,
					"midpoints" : [  ]
				}

			}
 ]
	}

}
