{
	"patcher" : 	{
		"fileversion" : 1,
		"rect" : [ 431.0, 50.0, 413.0, 370.0 ],
		"bglocked" : 0,
		"defrect" : [ 431.0, 50.0, 413.0, 370.0 ],
		"openrect" : [ 0.0, 0.0, 0.0, 0.0 ],
		"openinpresentation" : 0,
		"default_fontsize" : 12.0,
		"default_fontface" : 0,
		"default_fontname" : "Hiragino Kaku Gothic ProN W3",
		"gridonopen" : 0,
		"gridsize" : [ 15.0, 15.0 ],
		"gridsnaponopen" : 0,
		"toolbarvisible" : 1,
		"boxanimatetime" : 200,
		"imprint" : 0,
		"enablehscroll" : 1,
		"enablevscroll" : 1,
		"devicewidth" : 0.0,
		"boxes" : [ 			{
				"box" : 				{
					"maxclass" : "comment",
					"text" : "------------------------------------------------------------------------------",
					"patching_rect" : [ 30.0, 180.0, 373.0, 24.0 ],
					"id" : "obj-18",
					"fontname" : "Hiragino Kaku Gothic ProN W3",
					"numinlets" : 1,
					"numoutlets" : 0,
					"fontsize" : 12.0
				}

			}
, 			{
				"box" : 				{
					"maxclass" : "newobj",
					"text" : "receive~ signal",
					"outlettype" : [ "signal" ],
					"patching_rect" : [ 240.0, 210.0, 98.0, 24.0 ],
					"id" : "obj-17",
					"fontname" : "Hiragino Kaku Gothic ProN W3",
					"numinlets" : 1,
					"numoutlets" : 1,
					"fontsize" : 12.0
				}

			}
, 			{
				"box" : 				{
					"maxclass" : "newobj",
					"text" : "send~ signal",
					"patching_rect" : [ 240.0, 150.0, 84.0, 24.0 ],
					"id" : "obj-16",
					"fontname" : "Hiragino Kaku Gothic ProN W3",
					"numinlets" : 1,
					"numoutlets" : 0,
					"fontsize" : 12.0
				}

			}
, 			{
				"box" : 				{
					"maxclass" : "ezdac~",
					"patching_rect" : [ 240.0, 285.0, 45.0, 45.0 ],
					"id" : "obj-11",
					"numinlets" : 2,
					"numoutlets" : 0
				}

			}
, 			{
				"box" : 				{
					"maxclass" : "gain~",
					"outlettype" : [ "signal", "int" ],
					"patching_rect" : [ 240.0, 240.0, 111.0, 23.0 ],
					"id" : "obj-12",
					"numinlets" : 2,
					"numoutlets" : 2
				}

			}
, 			{
				"box" : 				{
					"maxclass" : "number",
					"outlettype" : [ "int", "bang" ],
					"patching_rect" : [ 240.0, 90.0, 109.0, 24.0 ],
					"id" : "obj-13",
					"fontname" : "Hiragino Kaku Gothic ProN W3",
					"numinlets" : 1,
					"numoutlets" : 2,
					"fontsize" : 12.0
				}

			}
, 			{
				"box" : 				{
					"maxclass" : "dial",
					"floatoutput" : 1,
					"outlettype" : [ "float" ],
					"vtracking" : 0,
					"size" : 8000.0,
					"patching_rect" : [ 240.0, 30.0, 53.0, 53.0 ],
					"id" : "obj-14",
					"numinlets" : 1,
					"numoutlets" : 1
				}

			}
, 			{
				"box" : 				{
					"maxclass" : "newobj",
					"text" : "cycle~",
					"outlettype" : [ "signal" ],
					"patching_rect" : [ 240.0, 120.0, 109.0, 24.0 ],
					"id" : "obj-15",
					"fontname" : "Hiragino Kaku Gothic ProN W3",
					"numinlets" : 2,
					"numoutlets" : 1,
					"fontsize" : 12.0
				}

			}
, 			{
				"box" : 				{
					"maxclass" : "newobj",
					"text" : "print",
					"patching_rect" : [ 135.0, 255.0, 38.0, 24.0 ],
					"id" : "obj-8",
					"fontname" : "Hiragino Kaku Gothic ProN W3",
					"numinlets" : 1,
					"numoutlets" : 0,
					"fontsize" : 12.0
				}

			}
, 			{
				"box" : 				{
					"maxclass" : "message",
					"text" : "Hello",
					"outlettype" : [ "" ],
					"patching_rect" : [ 135.0, 105.0, 40.0, 22.0 ],
					"id" : "obj-7",
					"fontname" : "Hiragino Kaku Gothic ProN W3",
					"numinlets" : 2,
					"numoutlets" : 1,
					"fontsize" : 12.0
				}

			}
, 			{
				"box" : 				{
					"maxclass" : "newobj",
					"text" : "r message",
					"outlettype" : [ "" ],
					"patching_rect" : [ 135.0, 210.0, 72.0, 24.0 ],
					"id" : "obj-6",
					"fontname" : "Hiragino Kaku Gothic ProN W3",
					"numinlets" : 0,
					"numoutlets" : 1,
					"fontsize" : 12.0
				}

			}
, 			{
				"box" : 				{
					"maxclass" : "newobj",
					"text" : "s message",
					"patching_rect" : [ 135.0, 150.0, 74.0, 24.0 ],
					"id" : "obj-5",
					"fontname" : "Hiragino Kaku Gothic ProN W3",
					"numinlets" : 1,
					"numoutlets" : 0,
					"fontsize" : 12.0
				}

			}
, 			{
				"box" : 				{
					"maxclass" : "number",
					"outlettype" : [ "int", "bang" ],
					"patching_rect" : [ 45.0, 255.0, 50.0, 24.0 ],
					"id" : "obj-4",
					"fontname" : "Hiragino Kaku Gothic ProN W3",
					"numinlets" : 1,
					"numoutlets" : 2,
					"fontsize" : 12.0
				}

			}
, 			{
				"box" : 				{
					"maxclass" : "newobj",
					"text" : "r number",
					"outlettype" : [ "" ],
					"patching_rect" : [ 45.0, 210.0, 66.0, 24.0 ],
					"id" : "obj-3",
					"fontname" : "Hiragino Kaku Gothic ProN W3",
					"numinlets" : 0,
					"numoutlets" : 1,
					"fontsize" : 12.0
				}

			}
, 			{
				"box" : 				{
					"maxclass" : "newobj",
					"text" : "s number",
					"patching_rect" : [ 45.0, 150.0, 67.0, 24.0 ],
					"id" : "obj-2",
					"fontname" : "Hiragino Kaku Gothic ProN W3",
					"numinlets" : 1,
					"numoutlets" : 0,
					"fontsize" : 12.0
				}

			}
, 			{
				"box" : 				{
					"maxclass" : "number",
					"outlettype" : [ "int", "bang" ],
					"patching_rect" : [ 45.0, 105.0, 50.0, 24.0 ],
					"id" : "obj-1",
					"fontname" : "Hiragino Kaku Gothic ProN W3",
					"numinlets" : 1,
					"numoutlets" : 2,
					"fontsize" : 12.0
				}

			}
 ],
		"lines" : [ 			{
				"patchline" : 				{
					"source" : [ "obj-17", 0 ],
					"destination" : [ "obj-12", 0 ],
					"hidden" : 0,
					"midpoints" : [  ]
				}

			}
, 			{
				"patchline" : 				{
					"source" : [ "obj-15", 0 ],
					"destination" : [ "obj-16", 0 ],
					"hidden" : 0,
					"midpoints" : [  ]
				}

			}
, 			{
				"patchline" : 				{
					"source" : [ "obj-12", 0 ],
					"destination" : [ "obj-11", 1 ],
					"hidden" : 0,
					"midpoints" : [  ]
				}

			}
, 			{
				"patchline" : 				{
					"source" : [ "obj-12", 0 ],
					"destination" : [ "obj-11", 0 ],
					"hidden" : 0,
					"midpoints" : [  ]
				}

			}
, 			{
				"patchline" : 				{
					"source" : [ "obj-13", 0 ],
					"destination" : [ "obj-15", 0 ],
					"hidden" : 0,
					"midpoints" : [  ]
				}

			}
, 			{
				"patchline" : 				{
					"source" : [ "obj-14", 0 ],
					"destination" : [ "obj-13", 0 ],
					"hidden" : 0,
					"midpoints" : [ 249.5, 94.5, 249.5, 94.5 ]
				}

			}
, 			{
				"patchline" : 				{
					"source" : [ "obj-6", 0 ],
					"destination" : [ "obj-8", 0 ],
					"hidden" : 0,
					"midpoints" : [  ]
				}

			}
, 			{
				"patchline" : 				{
					"source" : [ "obj-7", 0 ],
					"destination" : [ "obj-5", 0 ],
					"hidden" : 0,
					"midpoints" : [  ]
				}

			}
, 			{
				"patchline" : 				{
					"source" : [ "obj-3", 0 ],
					"destination" : [ "obj-4", 0 ],
					"hidden" : 0,
					"midpoints" : [  ]
				}

			}
, 			{
				"patchline" : 				{
					"source" : [ "obj-1", 0 ],
					"destination" : [ "obj-2", 0 ],
					"hidden" : 0,
					"midpoints" : [  ]
				}

			}
 ]
	}

}
