{
	"patcher" : 	{
		"fileversion" : 1,
		"rect" : [ 432.0, 50.0, 746.0, 496.0 ],
		"bglocked" : 0,
		"defrect" : [ 432.0, 50.0, 746.0, 496.0 ],
		"openrect" : [ 0.0, 0.0, 0.0, 0.0 ],
		"openinpresentation" : 0,
		"default_fontsize" : 12.0,
		"default_fontface" : 0,
		"default_fontname" : "Hiragino Kaku Gothic ProN W3",
		"gridonopen" : 0,
		"gridsize" : [ 15.0, 15.0 ],
		"gridsnaponopen" : 0,
		"toolbarvisible" : 1,
		"boxanimatetime" : 200,
		"imprint" : 0,
		"enablehscroll" : 1,
		"enablevscroll" : 1,
		"devicewidth" : 0.0,
		"boxes" : [ 			{
				"box" : 				{
					"maxclass" : "message",
					"text" : "clear",
					"outlettype" : [ "" ],
					"patching_rect" : [ 120.0, 75.0, 39.0, 22.0 ],
					"id" : "obj-39",
					"fontname" : "Hiragino Kaku Gothic ProN W3",
					"numinlets" : 2,
					"numoutlets" : 1,
					"fontsize" : 12.0
				}

			}
, 			{
				"box" : 				{
					"maxclass" : "preset",
					"outlettype" : [ "preset", "int", "preset", "int" ],
					"patching_rect" : [ 465.0, 30.0, 100.0, 40.0 ],
					"id" : "obj-38",
					"numinlets" : 1,
					"numoutlets" : 4,
					"preset_data" : [ 						{
							"number" : 1,
							"data" : [ 5, "obj-13", "number", "int", 246, 5, "obj-3", "kslider", "int", 59, 4, "obj-8", "function", "clear", 7, "obj-8", "function", "add", 0.0, 0.0, 0, 7, "obj-8", "function", "add", 292.553192, 1.0, 0, 7, "obj-8", "function", "add", 521.276611, 0.346667, 0, 7, "obj-8", "function", "add", 3633.802734, 0.0, 0, 5, "obj-8", "function", "domain", 4000.0, 6, "obj-8", "function", "range", 0.0, 1.0, 5, "obj-7", "flonum", "float", 1.0, 5, "obj-15", "flonum", "float", 2.0, 4, "obj-20", "function", "clear", 7, "obj-20", "function", "add", 0.0, 0.0, 0, 7, "obj-20", "function", "add", 788.732422, 0.694915, 0, 7, "obj-20", "function", "add", 2704.225342, 0.491525, 0, 7, "obj-20", "function", "add", 4000.0, 0.0, 0, 5, "obj-20", "function", "domain", 4000.0, 6, "obj-20", "function", "range", 0.0, 1.0, 5, "obj-28", "flonum", "float", 3.0, 5, "obj-24", "flonum", "float", 4.0, 4, "obj-34", "function", "clear", 7, "obj-34", "function", "add", 0.0, 0.0, 0, 7, "obj-34", "function", "add", 56.338028, 1.0, 0, 7, "obj-34", "function", "add", 366.197174, 0.0, 0, 7, "obj-34", "function", "add", 3126.760498, 0.661017, 0, 7, "obj-34", "function", "add", 4000.0, 0.0, 0, 5, "obj-34", "function", "domain", 4000.0, 6, "obj-34", "function", "range", 0.0, 1.0, 4, "obj-32", "function", "clear", 7, "obj-32", "function", "add", 0.0, 0.0, 0, 7, "obj-32", "function", "add", 56.338028, 1.0, 0, 7, "obj-32", "function", "add", 760.563354, 0.0, 0, 7, "obj-32", "function", "add", 3661.971924, 1.0, 0, 7, "obj-32", "function", "add", 4000.0, 0.0, 0, 5, "obj-32", "function", "domain", 4000.0, 6, "obj-32", "function", "range", 0.0, 1.0, 5, "obj-37", "number", "int", 4000 ]
						}
, 						{
							"number" : 2,
							"data" : [ 5, "obj-13", "number", "int", 174, 5, "obj-3", "kslider", "int", 53, 4, "obj-8", "function", "clear", 7, "obj-8", "function", "add", 0.0, 0.0, 0, 7, "obj-8", "function", "add", 14.084507, 1.0, 0, 7, "obj-8", "function", "add", 1000.0, 0.0, 0, 5, "obj-8", "function", "domain", 1000.0, 6, "obj-8", "function", "range", 0.0, 1.0, 5, "obj-7", "flonum", "float", 1.0, 5, "obj-15", "flonum", "float", 1.333, 4, "obj-20", "function", "clear", 7, "obj-20", "function", "add", 0.0, 0.0, 0, 7, "obj-20", "function", "add", 781.690125, 1.0, 0, 7, "obj-20", "function", "add", 1000.0, 0.0, 0, 5, "obj-20", "function", "domain", 1000.0, 6, "obj-20", "function", "range", 0.0, 1.0, 5, "obj-28", "flonum", "float", 2.0, 5, "obj-24", "flonum", "float", 3.3333, 4, "obj-34", "function", "clear", 7, "obj-34", "function", "add", 7.042253, 0.0, 0, 7, "obj-34", "function", "add", 14.084507, 0.983051, 0, 7, "obj-34", "function", "add", 1000.0, 0.016949, 0, 5, "obj-34", "function", "domain", 1000.0, 6, "obj-34", "function", "range", 0.0, 1.0, 4, "obj-32", "function", "clear", 7, "obj-32", "function", "add", 0.0, 0.0, 0, 7, "obj-32", "function", "add", 711.267578, 1.0, 0, 7, "obj-32", "function", "add", 1000.0, 0.0, 0, 5, "obj-32", "function", "domain", 1000.0, 6, "obj-32", "function", "range", 0.0, 1.0, 5, "obj-37", "number", "int", 1000 ]
						}
, 						{
							"number" : 3,
							"data" : [ 5, "obj-13", "number", "int", 130, 5, "obj-3", "kslider", "int", 48, 4, "obj-8", "function", "clear", 7, "obj-8", "function", "add", 70.422539, 1.0, 0, 7, "obj-8", "function", "add", 422.535217, 0.0, 0, 7, "obj-8", "function", "add", 10000.0, 0.0, 0, 5, "obj-8", "function", "domain", 10000.0, 6, "obj-8", "function", "range", 0.0, 1.0, 5, "obj-7", "flonum", "float", 1.0, 5, "obj-15", "flonum", "float", 1.333, 4, "obj-20", "function", "clear", 7, "obj-20", "function", "add", 0.0, 1.0, 0, 7, "obj-20", "function", "add", 1338.028198, 0.0, 0, 7, "obj-20", "function", "add", 10000.0, 0.0, 0, 5, "obj-20", "function", "domain", 10000.0, 6, "obj-20", "function", "range", 0.0, 1.0, 5, "obj-28", "flonum", "float", 2.345, 5, "obj-24", "flonum", "float", 7.77, 4, "obj-34", "function", "clear", 7, "obj-34", "function", "add", 0.0, 0.0, 0, 7, "obj-34", "function", "add", 7957.746582, 0.491525, 0, 7, "obj-34", "function", "add", 10000.0, 0.0, 0, 5, "obj-34", "function", "domain", 10000.0, 6, "obj-34", "function", "range", 0.0, 1.0, 4, "obj-32", "function", "clear", 7, "obj-32", "function", "add", 0.0, 1.0, 0, 7, "obj-32", "function", "add", 140.845078, 0.0, 0, 7, "obj-32", "function", "add", 8943.662109, 0.491525, 0, 7, "obj-32", "function", "add", 10000.0, 0.0, 0, 5, "obj-32", "function", "domain", 10000.0, 6, "obj-32", "function", "range", 0.0, 1.0, 5, "obj-37", "number", "int", 10000 ]
						}
 ]
				}

			}
, 			{
				"box" : 				{
					"maxclass" : "number",
					"outlettype" : [ "int", "bang" ],
					"patching_rect" : [ 360.0, 45.0, 98.0, 24.0 ],
					"id" : "obj-37",
					"fontname" : "Hiragino Kaku Gothic ProN W3",
					"numinlets" : 1,
					"numoutlets" : 2,
					"fontsize" : 12.0
				}

			}
, 			{
				"box" : 				{
					"maxclass" : "message",
					"text" : "domain $1",
					"outlettype" : [ "" ],
					"patching_rect" : [ 360.0, 75.0, 77.0, 22.0 ],
					"id" : "obj-36",
					"fontname" : "Hiragino Kaku Gothic ProN W3",
					"numinlets" : 2,
					"numoutlets" : 1,
					"fontsize" : 12.0
				}

			}
, 			{
				"box" : 				{
					"maxclass" : "newobj",
					"text" : "s env4",
					"patching_rect" : [ 630.0, 225.0, 50.0, 24.0 ],
					"id" : "obj-31",
					"fontname" : "Hiragino Kaku Gothic ProN W3",
					"numinlets" : 1,
					"numoutlets" : 0,
					"fontsize" : 12.0
				}

			}
, 			{
				"box" : 				{
					"maxclass" : "function",
					"outlettype" : [ "float", "", "", "bang" ],
					"patching_rect" : [ 585.0, 135.0, 154.0, 84.0 ],
					"id" : "obj-32",
					"numinlets" : 1,
					"numoutlets" : 4,
					"domain" : 10000.0,
					"addpoints" : [ 0.0, 1.0, 0, 140.845078, 0.0, 0, 8943.662109, 0.491525, 0, 10000.0, 0.0, 0 ]
				}

			}
, 			{
				"box" : 				{
					"maxclass" : "newobj",
					"text" : "s env3",
					"patching_rect" : [ 465.0, 225.0, 50.0, 24.0 ],
					"id" : "obj-33",
					"fontname" : "Hiragino Kaku Gothic ProN W3",
					"numinlets" : 1,
					"numoutlets" : 0,
					"fontsize" : 12.0
				}

			}
, 			{
				"box" : 				{
					"maxclass" : "function",
					"outlettype" : [ "float", "", "", "bang" ],
					"patching_rect" : [ 420.0, 135.0, 154.0, 84.0 ],
					"id" : "obj-34",
					"numinlets" : 1,
					"numoutlets" : 4,
					"domain" : 10000.0,
					"addpoints" : [ 0.0, 0.0, 0, 7957.746582, 0.491525, 0, 10000.0, 0.0, 0 ]
				}

			}
, 			{
				"box" : 				{
					"maxclass" : "newobj",
					"text" : "r env4",
					"outlettype" : [ "" ],
					"patching_rect" : [ 675.0, 255.0, 49.0, 24.0 ],
					"id" : "obj-23",
					"fontname" : "Hiragino Kaku Gothic ProN W3",
					"numinlets" : 0,
					"numoutlets" : 1,
					"fontsize" : 12.0
				}

			}
, 			{
				"box" : 				{
					"maxclass" : "flonum",
					"outlettype" : [ "float", "bang" ],
					"patching_rect" : [ 615.0, 255.0, 48.0, 24.0 ],
					"id" : "obj-24",
					"fontname" : "Hiragino Kaku Gothic ProN W3",
					"numinlets" : 1,
					"numoutlets" : 2,
					"fontsize" : 12.0
				}

			}
, 			{
				"box" : 				{
					"maxclass" : "newobj",
					"text" : "r base",
					"outlettype" : [ "" ],
					"patching_rect" : [ 555.0, 255.0, 48.0, 24.0 ],
					"id" : "obj-25",
					"fontname" : "Hiragino Kaku Gothic ProN W3",
					"numinlets" : 0,
					"numoutlets" : 1,
					"fontsize" : 12.0
				}

			}
, 			{
				"box" : 				{
					"maxclass" : "newobj",
					"text" : "p partial",
					"outlettype" : [ "signal" ],
					"patching_rect" : [ 555.0, 285.0, 139.0, 24.0 ],
					"id" : "obj-26",
					"fontname" : "Hiragino Kaku Gothic ProN W3",
					"numinlets" : 3,
					"numoutlets" : 1,
					"fontsize" : 12.0,
					"patcher" : 					{
						"fileversion" : 1,
						"rect" : [ 953.0, 47.0, 196.0, 220.0 ],
						"bglocked" : 0,
						"defrect" : [ 953.0, 47.0, 196.0, 220.0 ],
						"openrect" : [ 0.0, 0.0, 0.0, 0.0 ],
						"openinpresentation" : 0,
						"default_fontsize" : 12.0,
						"default_fontface" : 0,
						"default_fontname" : "Hiragino Kaku Gothic ProN W3",
						"gridonopen" : 0,
						"gridsize" : [ 15.0, 15.0 ],
						"gridsnaponopen" : 0,
						"toolbarvisible" : 1,
						"boxanimatetime" : 200,
						"imprint" : 0,
						"enablehscroll" : 1,
						"enablevscroll" : 1,
						"devicewidth" : 0.0,
						"boxes" : [ 							{
								"box" : 								{
									"maxclass" : "outlet",
									"patching_rect" : [ 15.0, 180.0, 25.0, 25.0 ],
									"id" : "obj-8",
									"numinlets" : 1,
									"numoutlets" : 0,
									"comment" : ""
								}

							}
, 							{
								"box" : 								{
									"maxclass" : "newobj",
									"text" : "line~",
									"outlettype" : [ "signal", "bang" ],
									"patching_rect" : [ 135.0, 90.0, 37.0, 24.0 ],
									"id" : "obj-7",
									"fontname" : "Hiragino Kaku Gothic ProN W3",
									"numinlets" : 2,
									"numoutlets" : 2,
									"fontsize" : 12.0
								}

							}
, 							{
								"box" : 								{
									"maxclass" : "newobj",
									"text" : "*~",
									"outlettype" : [ "signal" ],
									"patching_rect" : [ 15.0, 135.0, 138.5, 24.0 ],
									"id" : "obj-6",
									"fontname" : "Hiragino Kaku Gothic ProN W3",
									"numinlets" : 2,
									"numoutlets" : 1,
									"fontsize" : 12.0
								}

							}
, 							{
								"box" : 								{
									"maxclass" : "newobj",
									"text" : "cycle~",
									"outlettype" : [ "signal" ],
									"patching_rect" : [ 15.0, 90.0, 74.0, 24.0 ],
									"id" : "obj-5",
									"fontname" : "Hiragino Kaku Gothic ProN W3",
									"numinlets" : 2,
									"numoutlets" : 1,
									"fontsize" : 12.0
								}

							}
, 							{
								"box" : 								{
									"maxclass" : "newobj",
									"text" : "* 1.",
									"outlettype" : [ "float" ],
									"patching_rect" : [ 15.0, 60.0, 78.5, 24.0 ],
									"id" : "obj-4",
									"fontname" : "Hiragino Kaku Gothic ProN W3",
									"numinlets" : 2,
									"numoutlets" : 1,
									"fontsize" : 12.0
								}

							}
, 							{
								"box" : 								{
									"maxclass" : "inlet",
									"outlettype" : [ "" ],
									"patching_rect" : [ 135.0, 15.0, 25.0, 25.0 ],
									"id" : "obj-3",
									"numinlets" : 0,
									"numoutlets" : 1,
									"comment" : ""
								}

							}
, 							{
								"box" : 								{
									"maxclass" : "inlet",
									"outlettype" : [ "float" ],
									"patching_rect" : [ 75.0, 15.0, 25.0, 25.0 ],
									"id" : "obj-2",
									"numinlets" : 0,
									"numoutlets" : 1,
									"comment" : ""
								}

							}
, 							{
								"box" : 								{
									"maxclass" : "inlet",
									"outlettype" : [ "" ],
									"patching_rect" : [ 15.0, 15.0, 25.0, 25.0 ],
									"id" : "obj-1",
									"numinlets" : 0,
									"numoutlets" : 1,
									"comment" : ""
								}

							}
 ],
						"lines" : [ 							{
								"patchline" : 								{
									"source" : [ "obj-6", 0 ],
									"destination" : [ "obj-8", 0 ],
									"hidden" : 0,
									"midpoints" : [  ]
								}

							}
, 							{
								"patchline" : 								{
									"source" : [ "obj-3", 0 ],
									"destination" : [ "obj-7", 0 ],
									"hidden" : 0,
									"midpoints" : [  ]
								}

							}
, 							{
								"patchline" : 								{
									"source" : [ "obj-7", 0 ],
									"destination" : [ "obj-6", 1 ],
									"hidden" : 0,
									"midpoints" : [  ]
								}

							}
, 							{
								"patchline" : 								{
									"source" : [ "obj-5", 0 ],
									"destination" : [ "obj-6", 0 ],
									"hidden" : 0,
									"midpoints" : [  ]
								}

							}
, 							{
								"patchline" : 								{
									"source" : [ "obj-2", 0 ],
									"destination" : [ "obj-4", 1 ],
									"hidden" : 0,
									"midpoints" : [  ]
								}

							}
, 							{
								"patchline" : 								{
									"source" : [ "obj-4", 0 ],
									"destination" : [ "obj-5", 0 ],
									"hidden" : 0,
									"midpoints" : [  ]
								}

							}
, 							{
								"patchline" : 								{
									"source" : [ "obj-1", 0 ],
									"destination" : [ "obj-4", 0 ],
									"hidden" : 0,
									"midpoints" : [  ]
								}

							}
 ]
					}
,
					"saved_object_attributes" : 					{
						"default_fontface" : 0,
						"default_fontname" : "Hiragino Kaku Gothic ProN W3",
						"fontname" : "Hiragino Kaku Gothic ProN W3",
						"default_fontsize" : 12.0,
						"globalpatchername" : "",
						"fontface" : 0,
						"fontsize" : 12.0
					}

				}

			}
, 			{
				"box" : 				{
					"maxclass" : "newobj",
					"text" : "r env3",
					"outlettype" : [ "" ],
					"patching_rect" : [ 495.0, 255.0, 49.0, 24.0 ],
					"id" : "obj-27",
					"fontname" : "Hiragino Kaku Gothic ProN W3",
					"numinlets" : 0,
					"numoutlets" : 1,
					"fontsize" : 12.0
				}

			}
, 			{
				"box" : 				{
					"maxclass" : "flonum",
					"outlettype" : [ "float", "bang" ],
					"patching_rect" : [ 435.0, 255.0, 48.0, 24.0 ],
					"id" : "obj-28",
					"fontname" : "Hiragino Kaku Gothic ProN W3",
					"numinlets" : 1,
					"numoutlets" : 2,
					"fontsize" : 12.0
				}

			}
, 			{
				"box" : 				{
					"maxclass" : "newobj",
					"text" : "r base",
					"outlettype" : [ "" ],
					"patching_rect" : [ 375.0, 255.0, 48.0, 24.0 ],
					"id" : "obj-29",
					"fontname" : "Hiragino Kaku Gothic ProN W3",
					"numinlets" : 0,
					"numoutlets" : 1,
					"fontsize" : 12.0
				}

			}
, 			{
				"box" : 				{
					"maxclass" : "newobj",
					"text" : "p partial",
					"outlettype" : [ "signal" ],
					"patching_rect" : [ 375.0, 285.0, 139.0, 24.0 ],
					"id" : "obj-30",
					"fontname" : "Hiragino Kaku Gothic ProN W3",
					"numinlets" : 3,
					"numoutlets" : 1,
					"fontsize" : 12.0,
					"patcher" : 					{
						"fileversion" : 1,
						"rect" : [ 953.0, 47.0, 196.0, 220.0 ],
						"bglocked" : 0,
						"defrect" : [ 953.0, 47.0, 196.0, 220.0 ],
						"openrect" : [ 0.0, 0.0, 0.0, 0.0 ],
						"openinpresentation" : 0,
						"default_fontsize" : 12.0,
						"default_fontface" : 0,
						"default_fontname" : "Hiragino Kaku Gothic ProN W3",
						"gridonopen" : 0,
						"gridsize" : [ 15.0, 15.0 ],
						"gridsnaponopen" : 0,
						"toolbarvisible" : 1,
						"boxanimatetime" : 200,
						"imprint" : 0,
						"enablehscroll" : 1,
						"enablevscroll" : 1,
						"devicewidth" : 0.0,
						"boxes" : [ 							{
								"box" : 								{
									"maxclass" : "outlet",
									"patching_rect" : [ 15.0, 180.0, 25.0, 25.0 ],
									"id" : "obj-8",
									"numinlets" : 1,
									"numoutlets" : 0,
									"comment" : ""
								}

							}
, 							{
								"box" : 								{
									"maxclass" : "newobj",
									"text" : "line~",
									"outlettype" : [ "signal", "bang" ],
									"patching_rect" : [ 135.0, 90.0, 37.0, 24.0 ],
									"id" : "obj-7",
									"fontname" : "Hiragino Kaku Gothic ProN W3",
									"numinlets" : 2,
									"numoutlets" : 2,
									"fontsize" : 12.0
								}

							}
, 							{
								"box" : 								{
									"maxclass" : "newobj",
									"text" : "*~",
									"outlettype" : [ "signal" ],
									"patching_rect" : [ 15.0, 135.0, 138.5, 24.0 ],
									"id" : "obj-6",
									"fontname" : "Hiragino Kaku Gothic ProN W3",
									"numinlets" : 2,
									"numoutlets" : 1,
									"fontsize" : 12.0
								}

							}
, 							{
								"box" : 								{
									"maxclass" : "newobj",
									"text" : "cycle~",
									"outlettype" : [ "signal" ],
									"patching_rect" : [ 15.0, 90.0, 74.0, 24.0 ],
									"id" : "obj-5",
									"fontname" : "Hiragino Kaku Gothic ProN W3",
									"numinlets" : 2,
									"numoutlets" : 1,
									"fontsize" : 12.0
								}

							}
, 							{
								"box" : 								{
									"maxclass" : "newobj",
									"text" : "* 1.",
									"outlettype" : [ "float" ],
									"patching_rect" : [ 15.0, 60.0, 78.5, 24.0 ],
									"id" : "obj-4",
									"fontname" : "Hiragino Kaku Gothic ProN W3",
									"numinlets" : 2,
									"numoutlets" : 1,
									"fontsize" : 12.0
								}

							}
, 							{
								"box" : 								{
									"maxclass" : "inlet",
									"outlettype" : [ "" ],
									"patching_rect" : [ 135.0, 15.0, 25.0, 25.0 ],
									"id" : "obj-3",
									"numinlets" : 0,
									"numoutlets" : 1,
									"comment" : ""
								}

							}
, 							{
								"box" : 								{
									"maxclass" : "inlet",
									"outlettype" : [ "float" ],
									"patching_rect" : [ 75.0, 15.0, 25.0, 25.0 ],
									"id" : "obj-2",
									"numinlets" : 0,
									"numoutlets" : 1,
									"comment" : ""
								}

							}
, 							{
								"box" : 								{
									"maxclass" : "inlet",
									"outlettype" : [ "" ],
									"patching_rect" : [ 15.0, 15.0, 25.0, 25.0 ],
									"id" : "obj-1",
									"numinlets" : 0,
									"numoutlets" : 1,
									"comment" : ""
								}

							}
 ],
						"lines" : [ 							{
								"patchline" : 								{
									"source" : [ "obj-1", 0 ],
									"destination" : [ "obj-4", 0 ],
									"hidden" : 0,
									"midpoints" : [  ]
								}

							}
, 							{
								"patchline" : 								{
									"source" : [ "obj-4", 0 ],
									"destination" : [ "obj-5", 0 ],
									"hidden" : 0,
									"midpoints" : [  ]
								}

							}
, 							{
								"patchline" : 								{
									"source" : [ "obj-2", 0 ],
									"destination" : [ "obj-4", 1 ],
									"hidden" : 0,
									"midpoints" : [  ]
								}

							}
, 							{
								"patchline" : 								{
									"source" : [ "obj-5", 0 ],
									"destination" : [ "obj-6", 0 ],
									"hidden" : 0,
									"midpoints" : [  ]
								}

							}
, 							{
								"patchline" : 								{
									"source" : [ "obj-7", 0 ],
									"destination" : [ "obj-6", 1 ],
									"hidden" : 0,
									"midpoints" : [  ]
								}

							}
, 							{
								"patchline" : 								{
									"source" : [ "obj-3", 0 ],
									"destination" : [ "obj-7", 0 ],
									"hidden" : 0,
									"midpoints" : [  ]
								}

							}
, 							{
								"patchline" : 								{
									"source" : [ "obj-6", 0 ],
									"destination" : [ "obj-8", 0 ],
									"hidden" : 0,
									"midpoints" : [  ]
								}

							}
 ]
					}
,
					"saved_object_attributes" : 					{
						"default_fontface" : 0,
						"default_fontname" : "Hiragino Kaku Gothic ProN W3",
						"fontname" : "Hiragino Kaku Gothic ProN W3",
						"default_fontsize" : 12.0,
						"globalpatchername" : "",
						"fontface" : 0,
						"fontsize" : 12.0
					}

				}

			}
, 			{
				"box" : 				{
					"maxclass" : "newobj",
					"text" : "s env2",
					"patching_rect" : [ 300.0, 225.0, 50.0, 24.0 ],
					"id" : "obj-18",
					"fontname" : "Hiragino Kaku Gothic ProN W3",
					"numinlets" : 1,
					"numoutlets" : 0,
					"fontsize" : 12.0
				}

			}
, 			{
				"box" : 				{
					"maxclass" : "function",
					"outlettype" : [ "float", "", "", "bang" ],
					"patching_rect" : [ 255.0, 135.0, 154.0, 84.0 ],
					"id" : "obj-20",
					"numinlets" : 1,
					"numoutlets" : 4,
					"domain" : 10000.0,
					"addpoints" : [ 0.0, 1.0, 0, 1338.028198, 0.0, 0, 10000.0, 0.0, 0 ]
				}

			}
, 			{
				"box" : 				{
					"maxclass" : "newobj",
					"text" : "r env2",
					"outlettype" : [ "" ],
					"patching_rect" : [ 315.0, 255.0, 49.0, 24.0 ],
					"id" : "obj-12",
					"fontname" : "Hiragino Kaku Gothic ProN W3",
					"numinlets" : 0,
					"numoutlets" : 1,
					"fontsize" : 12.0
				}

			}
, 			{
				"box" : 				{
					"maxclass" : "flonum",
					"outlettype" : [ "float", "bang" ],
					"patching_rect" : [ 255.0, 255.0, 48.0, 24.0 ],
					"id" : "obj-15",
					"fontname" : "Hiragino Kaku Gothic ProN W3",
					"numinlets" : 1,
					"numoutlets" : 2,
					"fontsize" : 12.0
				}

			}
, 			{
				"box" : 				{
					"maxclass" : "newobj",
					"text" : "r base",
					"outlettype" : [ "" ],
					"patching_rect" : [ 195.0, 255.0, 48.0, 24.0 ],
					"id" : "obj-16",
					"fontname" : "Hiragino Kaku Gothic ProN W3",
					"numinlets" : 0,
					"numoutlets" : 1,
					"fontsize" : 12.0
				}

			}
, 			{
				"box" : 				{
					"maxclass" : "newobj",
					"text" : "p partial",
					"outlettype" : [ "signal" ],
					"patching_rect" : [ 195.0, 285.0, 139.0, 24.0 ],
					"id" : "obj-17",
					"fontname" : "Hiragino Kaku Gothic ProN W3",
					"numinlets" : 3,
					"numoutlets" : 1,
					"fontsize" : 12.0,
					"patcher" : 					{
						"fileversion" : 1,
						"rect" : [ 953.0, 47.0, 196.0, 220.0 ],
						"bglocked" : 0,
						"defrect" : [ 953.0, 47.0, 196.0, 220.0 ],
						"openrect" : [ 0.0, 0.0, 0.0, 0.0 ],
						"openinpresentation" : 0,
						"default_fontsize" : 12.0,
						"default_fontface" : 0,
						"default_fontname" : "Hiragino Kaku Gothic ProN W3",
						"gridonopen" : 0,
						"gridsize" : [ 15.0, 15.0 ],
						"gridsnaponopen" : 0,
						"toolbarvisible" : 1,
						"boxanimatetime" : 200,
						"imprint" : 0,
						"enablehscroll" : 1,
						"enablevscroll" : 1,
						"devicewidth" : 0.0,
						"boxes" : [ 							{
								"box" : 								{
									"maxclass" : "outlet",
									"patching_rect" : [ 15.0, 180.0, 25.0, 25.0 ],
									"id" : "obj-8",
									"numinlets" : 1,
									"numoutlets" : 0,
									"comment" : ""
								}

							}
, 							{
								"box" : 								{
									"maxclass" : "newobj",
									"text" : "line~",
									"outlettype" : [ "signal", "bang" ],
									"patching_rect" : [ 135.0, 90.0, 37.0, 24.0 ],
									"id" : "obj-7",
									"fontname" : "Hiragino Kaku Gothic ProN W3",
									"numinlets" : 2,
									"numoutlets" : 2,
									"fontsize" : 12.0
								}

							}
, 							{
								"box" : 								{
									"maxclass" : "newobj",
									"text" : "*~",
									"outlettype" : [ "signal" ],
									"patching_rect" : [ 15.0, 135.0, 138.5, 24.0 ],
									"id" : "obj-6",
									"fontname" : "Hiragino Kaku Gothic ProN W3",
									"numinlets" : 2,
									"numoutlets" : 1,
									"fontsize" : 12.0
								}

							}
, 							{
								"box" : 								{
									"maxclass" : "newobj",
									"text" : "cycle~",
									"outlettype" : [ "signal" ],
									"patching_rect" : [ 15.0, 90.0, 74.0, 24.0 ],
									"id" : "obj-5",
									"fontname" : "Hiragino Kaku Gothic ProN W3",
									"numinlets" : 2,
									"numoutlets" : 1,
									"fontsize" : 12.0
								}

							}
, 							{
								"box" : 								{
									"maxclass" : "newobj",
									"text" : "* 1.",
									"outlettype" : [ "float" ],
									"patching_rect" : [ 15.0, 60.0, 78.5, 24.0 ],
									"id" : "obj-4",
									"fontname" : "Hiragino Kaku Gothic ProN W3",
									"numinlets" : 2,
									"numoutlets" : 1,
									"fontsize" : 12.0
								}

							}
, 							{
								"box" : 								{
									"maxclass" : "inlet",
									"outlettype" : [ "" ],
									"patching_rect" : [ 135.0, 15.0, 25.0, 25.0 ],
									"id" : "obj-3",
									"numinlets" : 0,
									"numoutlets" : 1,
									"comment" : ""
								}

							}
, 							{
								"box" : 								{
									"maxclass" : "inlet",
									"outlettype" : [ "float" ],
									"patching_rect" : [ 75.0, 15.0, 25.0, 25.0 ],
									"id" : "obj-2",
									"numinlets" : 0,
									"numoutlets" : 1,
									"comment" : ""
								}

							}
, 							{
								"box" : 								{
									"maxclass" : "inlet",
									"outlettype" : [ "" ],
									"patching_rect" : [ 15.0, 15.0, 25.0, 25.0 ],
									"id" : "obj-1",
									"numinlets" : 0,
									"numoutlets" : 1,
									"comment" : ""
								}

							}
 ],
						"lines" : [ 							{
								"patchline" : 								{
									"source" : [ "obj-1", 0 ],
									"destination" : [ "obj-4", 0 ],
									"hidden" : 0,
									"midpoints" : [  ]
								}

							}
, 							{
								"patchline" : 								{
									"source" : [ "obj-4", 0 ],
									"destination" : [ "obj-5", 0 ],
									"hidden" : 0,
									"midpoints" : [  ]
								}

							}
, 							{
								"patchline" : 								{
									"source" : [ "obj-2", 0 ],
									"destination" : [ "obj-4", 1 ],
									"hidden" : 0,
									"midpoints" : [  ]
								}

							}
, 							{
								"patchline" : 								{
									"source" : [ "obj-5", 0 ],
									"destination" : [ "obj-6", 0 ],
									"hidden" : 0,
									"midpoints" : [  ]
								}

							}
, 							{
								"patchline" : 								{
									"source" : [ "obj-7", 0 ],
									"destination" : [ "obj-6", 1 ],
									"hidden" : 0,
									"midpoints" : [  ]
								}

							}
, 							{
								"patchline" : 								{
									"source" : [ "obj-3", 0 ],
									"destination" : [ "obj-7", 0 ],
									"hidden" : 0,
									"midpoints" : [  ]
								}

							}
, 							{
								"patchline" : 								{
									"source" : [ "obj-6", 0 ],
									"destination" : [ "obj-8", 0 ],
									"hidden" : 0,
									"midpoints" : [  ]
								}

							}
 ]
					}
,
					"saved_object_attributes" : 					{
						"default_fontface" : 0,
						"default_fontname" : "Hiragino Kaku Gothic ProN W3",
						"fontname" : "Hiragino Kaku Gothic ProN W3",
						"default_fontsize" : 12.0,
						"globalpatchername" : "",
						"fontface" : 0,
						"fontsize" : 12.0
					}

				}

			}
, 			{
				"box" : 				{
					"maxclass" : "newobj",
					"text" : "r env1",
					"outlettype" : [ "" ],
					"patching_rect" : [ 135.0, 255.0, 49.0, 24.0 ],
					"id" : "obj-11",
					"fontname" : "Hiragino Kaku Gothic ProN W3",
					"numinlets" : 0,
					"numoutlets" : 1,
					"fontsize" : 12.0
				}

			}
, 			{
				"box" : 				{
					"maxclass" : "newobj",
					"text" : "s env1",
					"patching_rect" : [ 135.0, 225.0, 50.0, 24.0 ],
					"id" : "obj-9",
					"fontname" : "Hiragino Kaku Gothic ProN W3",
					"numinlets" : 1,
					"numoutlets" : 0,
					"fontsize" : 12.0
				}

			}
, 			{
				"box" : 				{
					"maxclass" : "flonum",
					"outlettype" : [ "float", "bang" ],
					"patching_rect" : [ 75.0, 255.0, 48.0, 24.0 ],
					"id" : "obj-7",
					"fontname" : "Hiragino Kaku Gothic ProN W3",
					"numinlets" : 1,
					"numoutlets" : 2,
					"fontsize" : 12.0
				}

			}
, 			{
				"box" : 				{
					"maxclass" : "newobj",
					"text" : "r base",
					"outlettype" : [ "" ],
					"patching_rect" : [ 15.0, 255.0, 48.0, 24.0 ],
					"id" : "obj-6",
					"fontname" : "Hiragino Kaku Gothic ProN W3",
					"numinlets" : 0,
					"numoutlets" : 1,
					"fontsize" : 12.0
				}

			}
, 			{
				"box" : 				{
					"maxclass" : "newobj",
					"text" : "s base",
					"patching_rect" : [ 15.0, 135.0, 49.0, 24.0 ],
					"id" : "obj-4",
					"fontname" : "Hiragino Kaku Gothic ProN W3",
					"numinlets" : 1,
					"numoutlets" : 0,
					"fontsize" : 12.0
				}

			}
, 			{
				"box" : 				{
					"maxclass" : "newobj",
					"text" : "p partial",
					"outlettype" : [ "signal" ],
					"patching_rect" : [ 15.0, 285.0, 139.0, 24.0 ],
					"id" : "obj-2",
					"fontname" : "Hiragino Kaku Gothic ProN W3",
					"numinlets" : 3,
					"numoutlets" : 1,
					"fontsize" : 12.0,
					"patcher" : 					{
						"fileversion" : 1,
						"rect" : [ 971.0, 73.0, 196.0, 220.0 ],
						"bglocked" : 0,
						"defrect" : [ 971.0, 73.0, 196.0, 220.0 ],
						"openrect" : [ 0.0, 0.0, 0.0, 0.0 ],
						"openinpresentation" : 0,
						"default_fontsize" : 12.0,
						"default_fontface" : 0,
						"default_fontname" : "Hiragino Kaku Gothic ProN W3",
						"gridonopen" : 0,
						"gridsize" : [ 15.0, 15.0 ],
						"gridsnaponopen" : 0,
						"toolbarvisible" : 1,
						"boxanimatetime" : 200,
						"imprint" : 0,
						"enablehscroll" : 1,
						"enablevscroll" : 1,
						"devicewidth" : 0.0,
						"boxes" : [ 							{
								"box" : 								{
									"maxclass" : "outlet",
									"patching_rect" : [ 15.0, 180.0, 25.0, 25.0 ],
									"id" : "obj-8",
									"numinlets" : 1,
									"numoutlets" : 0,
									"comment" : ""
								}

							}
, 							{
								"box" : 								{
									"maxclass" : "newobj",
									"text" : "line~",
									"outlettype" : [ "signal", "bang" ],
									"patching_rect" : [ 135.0, 90.0, 37.0, 24.0 ],
									"id" : "obj-7",
									"fontname" : "Hiragino Kaku Gothic ProN W3",
									"numinlets" : 2,
									"numoutlets" : 2,
									"fontsize" : 12.0
								}

							}
, 							{
								"box" : 								{
									"maxclass" : "newobj",
									"text" : "*~",
									"outlettype" : [ "signal" ],
									"patching_rect" : [ 15.0, 135.0, 138.5, 24.0 ],
									"id" : "obj-6",
									"fontname" : "Hiragino Kaku Gothic ProN W3",
									"numinlets" : 2,
									"numoutlets" : 1,
									"fontsize" : 12.0
								}

							}
, 							{
								"box" : 								{
									"maxclass" : "newobj",
									"text" : "cycle~",
									"outlettype" : [ "signal" ],
									"patching_rect" : [ 15.0, 90.0, 74.0, 24.0 ],
									"id" : "obj-5",
									"fontname" : "Hiragino Kaku Gothic ProN W3",
									"numinlets" : 2,
									"numoutlets" : 1,
									"fontsize" : 12.0
								}

							}
, 							{
								"box" : 								{
									"maxclass" : "newobj",
									"text" : "* 1.",
									"outlettype" : [ "float" ],
									"patching_rect" : [ 15.0, 60.0, 78.5, 24.0 ],
									"id" : "obj-4",
									"fontname" : "Hiragino Kaku Gothic ProN W3",
									"numinlets" : 2,
									"numoutlets" : 1,
									"fontsize" : 12.0
								}

							}
, 							{
								"box" : 								{
									"maxclass" : "inlet",
									"outlettype" : [ "" ],
									"patching_rect" : [ 135.0, 15.0, 25.0, 25.0 ],
									"id" : "obj-3",
									"numinlets" : 0,
									"numoutlets" : 1,
									"comment" : ""
								}

							}
, 							{
								"box" : 								{
									"maxclass" : "inlet",
									"outlettype" : [ "float" ],
									"patching_rect" : [ 75.0, 15.0, 25.0, 25.0 ],
									"id" : "obj-2",
									"numinlets" : 0,
									"numoutlets" : 1,
									"comment" : ""
								}

							}
, 							{
								"box" : 								{
									"maxclass" : "inlet",
									"outlettype" : [ "" ],
									"patching_rect" : [ 15.0, 15.0, 25.0, 25.0 ],
									"id" : "obj-1",
									"numinlets" : 0,
									"numoutlets" : 1,
									"comment" : ""
								}

							}
 ],
						"lines" : [ 							{
								"patchline" : 								{
									"source" : [ "obj-6", 0 ],
									"destination" : [ "obj-8", 0 ],
									"hidden" : 0,
									"midpoints" : [  ]
								}

							}
, 							{
								"patchline" : 								{
									"source" : [ "obj-3", 0 ],
									"destination" : [ "obj-7", 0 ],
									"hidden" : 0,
									"midpoints" : [  ]
								}

							}
, 							{
								"patchline" : 								{
									"source" : [ "obj-7", 0 ],
									"destination" : [ "obj-6", 1 ],
									"hidden" : 0,
									"midpoints" : [  ]
								}

							}
, 							{
								"patchline" : 								{
									"source" : [ "obj-5", 0 ],
									"destination" : [ "obj-6", 0 ],
									"hidden" : 0,
									"midpoints" : [  ]
								}

							}
, 							{
								"patchline" : 								{
									"source" : [ "obj-2", 0 ],
									"destination" : [ "obj-4", 1 ],
									"hidden" : 0,
									"midpoints" : [  ]
								}

							}
, 							{
								"patchline" : 								{
									"source" : [ "obj-4", 0 ],
									"destination" : [ "obj-5", 0 ],
									"hidden" : 0,
									"midpoints" : [  ]
								}

							}
, 							{
								"patchline" : 								{
									"source" : [ "obj-1", 0 ],
									"destination" : [ "obj-4", 0 ],
									"hidden" : 0,
									"midpoints" : [  ]
								}

							}
 ]
					}
,
					"saved_object_attributes" : 					{
						"default_fontface" : 0,
						"default_fontname" : "Hiragino Kaku Gothic ProN W3",
						"fontname" : "Hiragino Kaku Gothic ProN W3",
						"default_fontsize" : 12.0,
						"globalpatchername" : "",
						"fontface" : 0,
						"fontsize" : 12.0
					}

				}

			}
, 			{
				"box" : 				{
					"maxclass" : "meter~",
					"outlettype" : [ "float" ],
					"patching_rect" : [ 390.0, 345.0, 13.0, 74.0 ],
					"id" : "obj-22",
					"numinlets" : 1,
					"numoutlets" : 1
				}

			}
, 			{
				"box" : 				{
					"maxclass" : "gain~",
					"outlettype" : [ "signal", "int" ],
					"patching_rect" : [ 345.0, 345.0, 27.0, 75.0 ],
					"id" : "obj-21",
					"numinlets" : 2,
					"numoutlets" : 2
				}

			}
, 			{
				"box" : 				{
					"maxclass" : "meter~",
					"outlettype" : [ "float" ],
					"patching_rect" : [ 375.0, 345.0, 13.0, 74.0 ],
					"id" : "obj-19",
					"numinlets" : 1,
					"numoutlets" : 1
				}

			}
, 			{
				"box" : 				{
					"maxclass" : "ezdac~",
					"patching_rect" : [ 315.0, 435.0, 49.0, 49.0 ],
					"id" : "obj-14",
					"numinlets" : 2,
					"numoutlets" : 0
				}

			}
, 			{
				"box" : 				{
					"maxclass" : "gain~",
					"outlettype" : [ "signal", "int" ],
					"patching_rect" : [ 315.0, 345.0, 27.0, 75.0 ],
					"id" : "obj-5",
					"numinlets" : 2,
					"numoutlets" : 2
				}

			}
, 			{
				"box" : 				{
					"maxclass" : "button",
					"outlettype" : [ "bang" ],
					"patching_rect" : [ 90.0, 75.0, 20.0, 20.0 ],
					"id" : "obj-10",
					"numinlets" : 1,
					"numoutlets" : 1
				}

			}
, 			{
				"box" : 				{
					"maxclass" : "function",
					"outlettype" : [ "float", "", "", "bang" ],
					"patching_rect" : [ 90.0, 135.0, 154.0, 84.0 ],
					"id" : "obj-8",
					"numinlets" : 1,
					"numoutlets" : 4,
					"domain" : 10000.0,
					"addpoints" : [ 70.422539, 1.0, 0, 422.535217, 0.0, 0, 10000.0, 0.0, 0 ]
				}

			}
, 			{
				"box" : 				{
					"maxclass" : "newobj",
					"text" : "mtof",
					"outlettype" : [ "" ],
					"patching_rect" : [ 15.0, 75.0, 39.0, 24.0 ],
					"id" : "obj-1",
					"fontname" : "Hiragino Kaku Gothic ProN W3",
					"numinlets" : 1,
					"numoutlets" : 1,
					"fontsize" : 12.0
				}

			}
, 			{
				"box" : 				{
					"maxclass" : "kslider",
					"outlettype" : [ "int", "int" ],
					"patching_rect" : [ 15.0, 15.0, 336.0, 53.0 ],
					"id" : "obj-3",
					"numinlets" : 2,
					"numoutlets" : 2
				}

			}
, 			{
				"box" : 				{
					"maxclass" : "number",
					"outlettype" : [ "int", "bang" ],
					"patching_rect" : [ 15.0, 105.0, 72.0, 24.0 ],
					"id" : "obj-13",
					"fontname" : "Hiragino Kaku Gothic ProN W3",
					"numinlets" : 1,
					"numoutlets" : 2,
					"fontsize" : 12.0
				}

			}
 ],
		"lines" : [ 			{
				"patchline" : 				{
					"source" : [ "obj-7", 0 ],
					"destination" : [ "obj-2", 1 ],
					"hidden" : 0,
					"midpoints" : [  ]
				}

			}
, 			{
				"patchline" : 				{
					"source" : [ "obj-5", 0 ],
					"destination" : [ "obj-14", 0 ],
					"hidden" : 0,
					"midpoints" : [  ]
				}

			}
, 			{
				"patchline" : 				{
					"source" : [ "obj-5", 1 ],
					"destination" : [ "obj-21", 0 ],
					"hidden" : 1,
					"midpoints" : [  ]
				}

			}
, 			{
				"patchline" : 				{
					"source" : [ "obj-21", 0 ],
					"destination" : [ "obj-14", 1 ],
					"hidden" : 0,
					"midpoints" : [  ]
				}

			}
, 			{
				"patchline" : 				{
					"source" : [ "obj-5", 0 ],
					"destination" : [ "obj-19", 0 ],
					"hidden" : 1,
					"midpoints" : [  ]
				}

			}
, 			{
				"patchline" : 				{
					"source" : [ "obj-21", 0 ],
					"destination" : [ "obj-22", 0 ],
					"hidden" : 1,
					"midpoints" : [  ]
				}

			}
, 			{
				"patchline" : 				{
					"source" : [ "obj-3", 0 ],
					"destination" : [ "obj-10", 0 ],
					"hidden" : 0,
					"midpoints" : [ 24.5, 71.0, 99.5, 71.0 ]
				}

			}
, 			{
				"patchline" : 				{
					"source" : [ "obj-10", 0 ],
					"destination" : [ "obj-8", 0 ],
					"hidden" : 0,
					"midpoints" : [  ]
				}

			}
, 			{
				"patchline" : 				{
					"source" : [ "obj-1", 0 ],
					"destination" : [ "obj-13", 0 ],
					"hidden" : 0,
					"midpoints" : [  ]
				}

			}
, 			{
				"patchline" : 				{
					"source" : [ "obj-3", 0 ],
					"destination" : [ "obj-1", 0 ],
					"hidden" : 0,
					"midpoints" : [  ]
				}

			}
, 			{
				"patchline" : 				{
					"source" : [ "obj-8", 1 ],
					"destination" : [ "obj-9", 0 ],
					"hidden" : 0,
					"midpoints" : [  ]
				}

			}
, 			{
				"patchline" : 				{
					"source" : [ "obj-11", 0 ],
					"destination" : [ "obj-2", 2 ],
					"hidden" : 0,
					"midpoints" : [  ]
				}

			}
, 			{
				"patchline" : 				{
					"source" : [ "obj-2", 0 ],
					"destination" : [ "obj-5", 0 ],
					"hidden" : 0,
					"midpoints" : [ 24.5, 326.5, 324.5, 326.5 ]
				}

			}
, 			{
				"patchline" : 				{
					"source" : [ "obj-13", 0 ],
					"destination" : [ "obj-4", 0 ],
					"hidden" : 0,
					"midpoints" : [  ]
				}

			}
, 			{
				"patchline" : 				{
					"source" : [ "obj-6", 0 ],
					"destination" : [ "obj-2", 0 ],
					"hidden" : 0,
					"midpoints" : [  ]
				}

			}
, 			{
				"patchline" : 				{
					"source" : [ "obj-16", 0 ],
					"destination" : [ "obj-17", 0 ],
					"hidden" : 0,
					"midpoints" : [  ]
				}

			}
, 			{
				"patchline" : 				{
					"source" : [ "obj-15", 0 ],
					"destination" : [ "obj-17", 1 ],
					"hidden" : 0,
					"midpoints" : [  ]
				}

			}
, 			{
				"patchline" : 				{
					"source" : [ "obj-12", 0 ],
					"destination" : [ "obj-17", 2 ],
					"hidden" : 0,
					"midpoints" : [  ]
				}

			}
, 			{
				"patchline" : 				{
					"source" : [ "obj-20", 1 ],
					"destination" : [ "obj-18", 0 ],
					"hidden" : 0,
					"midpoints" : [  ]
				}

			}
, 			{
				"patchline" : 				{
					"source" : [ "obj-17", 0 ],
					"destination" : [ "obj-5", 0 ],
					"hidden" : 0,
					"midpoints" : [ 204.5, 326.5, 324.5, 326.5 ]
				}

			}
, 			{
				"patchline" : 				{
					"source" : [ "obj-24", 0 ],
					"destination" : [ "obj-26", 1 ],
					"hidden" : 0,
					"midpoints" : [  ]
				}

			}
, 			{
				"patchline" : 				{
					"source" : [ "obj-25", 0 ],
					"destination" : [ "obj-26", 0 ],
					"hidden" : 0,
					"midpoints" : [  ]
				}

			}
, 			{
				"patchline" : 				{
					"source" : [ "obj-29", 0 ],
					"destination" : [ "obj-30", 0 ],
					"hidden" : 0,
					"midpoints" : [  ]
				}

			}
, 			{
				"patchline" : 				{
					"source" : [ "obj-28", 0 ],
					"destination" : [ "obj-30", 1 ],
					"hidden" : 0,
					"midpoints" : [  ]
				}

			}
, 			{
				"patchline" : 				{
					"source" : [ "obj-27", 0 ],
					"destination" : [ "obj-30", 2 ],
					"hidden" : 0,
					"midpoints" : [  ]
				}

			}
, 			{
				"patchline" : 				{
					"source" : [ "obj-34", 1 ],
					"destination" : [ "obj-33", 0 ],
					"hidden" : 0,
					"midpoints" : [  ]
				}

			}
, 			{
				"patchline" : 				{
					"source" : [ "obj-32", 1 ],
					"destination" : [ "obj-31", 0 ],
					"hidden" : 0,
					"midpoints" : [  ]
				}

			}
, 			{
				"patchline" : 				{
					"source" : [ "obj-23", 0 ],
					"destination" : [ "obj-26", 2 ],
					"hidden" : 0,
					"midpoints" : [  ]
				}

			}
, 			{
				"patchline" : 				{
					"source" : [ "obj-10", 0 ],
					"destination" : [ "obj-20", 0 ],
					"hidden" : 0,
					"midpoints" : [ 99.5, 114.5, 264.5, 114.5 ]
				}

			}
, 			{
				"patchline" : 				{
					"source" : [ "obj-10", 0 ],
					"destination" : [ "obj-34", 0 ],
					"hidden" : 0,
					"midpoints" : [ 99.5, 114.5, 429.5, 114.5 ]
				}

			}
, 			{
				"patchline" : 				{
					"source" : [ "obj-10", 0 ],
					"destination" : [ "obj-32", 0 ],
					"hidden" : 0,
					"midpoints" : [ 99.5, 114.5, 594.5, 114.5 ]
				}

			}
, 			{
				"patchline" : 				{
					"source" : [ "obj-37", 0 ],
					"destination" : [ "obj-36", 0 ],
					"hidden" : 0,
					"midpoints" : [  ]
				}

			}
, 			{
				"patchline" : 				{
					"source" : [ "obj-36", 0 ],
					"destination" : [ "obj-8", 0 ],
					"hidden" : 0,
					"midpoints" : [ 369.5, 115.5, 99.5, 115.5 ]
				}

			}
, 			{
				"patchline" : 				{
					"source" : [ "obj-36", 0 ],
					"destination" : [ "obj-20", 0 ],
					"hidden" : 0,
					"midpoints" : [ 369.5, 115.5, 264.5, 115.5 ]
				}

			}
, 			{
				"patchline" : 				{
					"source" : [ "obj-36", 0 ],
					"destination" : [ "obj-34", 0 ],
					"hidden" : 0,
					"midpoints" : [ 369.5, 115.5, 429.5, 115.5 ]
				}

			}
, 			{
				"patchline" : 				{
					"source" : [ "obj-36", 0 ],
					"destination" : [ "obj-32", 0 ],
					"hidden" : 0,
					"midpoints" : [ 369.5, 115.5, 594.5, 115.5 ]
				}

			}
, 			{
				"patchline" : 				{
					"source" : [ "obj-30", 0 ],
					"destination" : [ "obj-21", 0 ],
					"hidden" : 0,
					"midpoints" : [ 384.5, 326.5, 354.5, 326.5 ]
				}

			}
, 			{
				"patchline" : 				{
					"source" : [ "obj-26", 0 ],
					"destination" : [ "obj-21", 0 ],
					"hidden" : 0,
					"midpoints" : [ 564.5, 326.5, 354.5, 326.5 ]
				}

			}
, 			{
				"patchline" : 				{
					"source" : [ "obj-30", 0 ],
					"destination" : [ "obj-5", 0 ],
					"hidden" : 0,
					"midpoints" : [ 384.5, 326.5, 324.5, 326.5 ]
				}

			}
, 			{
				"patchline" : 				{
					"source" : [ "obj-26", 0 ],
					"destination" : [ "obj-5", 0 ],
					"hidden" : 0,
					"midpoints" : [ 564.5, 326.5, 324.5, 326.5 ]
				}

			}
, 			{
				"patchline" : 				{
					"source" : [ "obj-17", 0 ],
					"destination" : [ "obj-21", 0 ],
					"hidden" : 0,
					"midpoints" : [ 204.5, 326.5, 354.5, 326.5 ]
				}

			}
, 			{
				"patchline" : 				{
					"source" : [ "obj-2", 0 ],
					"destination" : [ "obj-21", 0 ],
					"hidden" : 0,
					"midpoints" : [ 24.5, 326.5, 354.5, 326.5 ]
				}

			}
, 			{
				"patchline" : 				{
					"source" : [ "obj-38", 2 ],
					"destination" : [ "obj-5", 0 ],
					"hidden" : 1,
					"midpoints" : [  ]
				}

			}
, 			{
				"patchline" : 				{
					"source" : [ "obj-38", 2 ],
					"destination" : [ "obj-21", 0 ],
					"hidden" : 1,
					"midpoints" : [  ]
				}

			}
, 			{
				"patchline" : 				{
					"source" : [ "obj-39", 0 ],
					"destination" : [ "obj-8", 0 ],
					"hidden" : 0,
					"midpoints" : [ 129.5, 115.5, 99.5, 115.5 ]
				}

			}
, 			{
				"patchline" : 				{
					"source" : [ "obj-39", 0 ],
					"destination" : [ "obj-20", 0 ],
					"hidden" : 0,
					"midpoints" : [ 129.5, 115.5, 264.5, 115.5 ]
				}

			}
, 			{
				"patchline" : 				{
					"source" : [ "obj-39", 0 ],
					"destination" : [ "obj-34", 0 ],
					"hidden" : 0,
					"midpoints" : [ 129.5, 115.5, 429.5, 115.5 ]
				}

			}
, 			{
				"patchline" : 				{
					"source" : [ "obj-39", 0 ],
					"destination" : [ "obj-32", 0 ],
					"hidden" : 0,
					"midpoints" : [ 129.5, 115.5, 594.5, 115.5 ]
				}

			}
 ]
	}

}
