{
	"patcher" : 	{
		"fileversion" : 1,
		"rect" : [ 27.0, 63.0, 678.0, 505.0 ],
		"bglocked" : 0,
		"defrect" : [ 27.0, 63.0, 678.0, 505.0 ],
		"openrect" : [ 0.0, 0.0, 0.0, 0.0 ],
		"openinpresentation" : 0,
		"default_fontsize" : 12.0,
		"default_fontface" : 0,
		"default_fontname" : "Hiragino Kaku Gothic ProN W3",
		"gridonopen" : 0,
		"gridsize" : [ 15.0, 15.0 ],
		"gridsnaponopen" : 0,
		"toolbarvisible" : 1,
		"boxanimatetime" : 200,
		"imprint" : 0,
		"enablehscroll" : 1,
		"enablevscroll" : 1,
		"devicewidth" : 0.0,
		"boxes" : [ 			{
				"box" : 				{
					"maxclass" : "ezdac~",
					"patching_rect" : [ 375.0, 435.0, 50.0, 50.0 ],
					"id" : "obj-32",
					"numinlets" : 2,
					"numoutlets" : 0
				}

			}
, 			{
				"box" : 				{
					"maxclass" : "gain~",
					"patching_rect" : [ 375.0, 315.0, 40.0, 97.0 ],
					"outlettype" : [ "signal", "int" ],
					"id" : "obj-34",
					"numinlets" : 2,
					"numoutlets" : 2
				}

			}
, 			{
				"box" : 				{
					"maxclass" : "message",
					"text" : "fsmenubar 0",
					"patching_rect" : [ 135.0, 315.0, 86.0, 21.0 ],
					"outlettype" : [ "" ],
					"id" : "obj-1",
					"fontname" : "Geneva",
					"numinlets" : 2,
					"numoutlets" : 1,
					"fontsize" : 12.0
				}

			}
, 			{
				"box" : 				{
					"maxclass" : "toggle",
					"patching_rect" : [ 30.0, 285.0, 21.0, 21.0 ],
					"outlettype" : [ "int" ],
					"id" : "obj-2",
					"numinlets" : 1,
					"numoutlets" : 1
				}

			}
, 			{
				"box" : 				{
					"maxclass" : "newobj",
					"text" : "jit.window fullscreen",
					"patching_rect" : [ 15.0, 360.0, 138.0, 23.0 ],
					"outlettype" : [ "bang", "" ],
					"id" : "obj-3",
					"fontname" : "Geneva",
					"numinlets" : 1,
					"numoutlets" : 2,
					"fontsize" : 12.0
				}

			}
, 			{
				"box" : 				{
					"maxclass" : "message",
					"text" : "fullscreen $1",
					"patching_rect" : [ 30.0, 315.0, 91.0, 21.0 ],
					"outlettype" : [ "" ],
					"id" : "obj-4",
					"fontname" : "Geneva",
					"numinlets" : 2,
					"numoutlets" : 1,
					"fontsize" : 12.0
				}

			}
, 			{
				"box" : 				{
					"maxclass" : "newobj",
					"text" : "sel 27",
					"patching_rect" : [ 30.0, 255.0, 48.0, 23.0 ],
					"outlettype" : [ "bang", "" ],
					"id" : "obj-5",
					"fontname" : "Geneva",
					"numinlets" : 2,
					"numoutlets" : 2,
					"fontsize" : 12.0
				}

			}
, 			{
				"box" : 				{
					"maxclass" : "newobj",
					"text" : "key",
					"patching_rect" : [ 30.0, 225.0, 49.0, 23.0 ],
					"outlettype" : [ "int", "int", "int", "int" ],
					"id" : "obj-6",
					"fontname" : "Geneva",
					"numinlets" : 0,
					"numoutlets" : 4,
					"fontsize" : 12.0
				}

			}
, 			{
				"box" : 				{
					"maxclass" : "flonum",
					"patching_rect" : [ 255.0, 105.0, 54.0, 23.0 ],
					"outlettype" : [ "float", "bang" ],
					"id" : "obj-7",
					"fontname" : "Geneva",
					"htextcolor" : [ 0.870588, 0.870588, 0.870588, 1.0 ],
					"bgcolor" : [ 0.866667, 0.866667, 0.866667, 1.0 ],
					"triscale" : 0.9,
					"numinlets" : 1,
					"numoutlets" : 2,
					"fontsize" : 12.0
				}

			}
, 			{
				"box" : 				{
					"maxclass" : "flonum",
					"patching_rect" : [ 285.0, 195.0, 59.0, 23.0 ],
					"outlettype" : [ "float", "bang" ],
					"id" : "obj-8",
					"fontname" : "Geneva",
					"htextcolor" : [ 0.870588, 0.870588, 0.870588, 1.0 ],
					"bgcolor" : [ 0.866667, 0.866667, 0.866667, 1.0 ],
					"triscale" : 0.9,
					"numinlets" : 1,
					"numoutlets" : 2,
					"fontsize" : 12.0
				}

			}
, 			{
				"box" : 				{
					"maxclass" : "newobj",
					"text" : "*~ 0.",
					"patching_rect" : [ 255.0, 240.0, 42.0, 23.0 ],
					"outlettype" : [ "signal" ],
					"id" : "obj-9",
					"fontname" : "Geneva",
					"numinlets" : 2,
					"numoutlets" : 1,
					"fontsize" : 12.0
				}

			}
, 			{
				"box" : 				{
					"maxclass" : "newobj",
					"text" : "cycle~ 20.",
					"patching_rect" : [ 255.0, 150.0, 72.0, 23.0 ],
					"outlettype" : [ "signal" ],
					"id" : "obj-10",
					"fontname" : "Geneva",
					"numinlets" : 2,
					"numoutlets" : 1,
					"fontsize" : 12.0
				}

			}
, 			{
				"box" : 				{
					"maxclass" : "flonum",
					"patching_rect" : [ 105.0, 15.0, 102.0, 23.0 ],
					"outlettype" : [ "float", "bang" ],
					"id" : "obj-12",
					"fontname" : "Geneva",
					"htextcolor" : [ 0.870588, 0.870588, 0.870588, 1.0 ],
					"bgcolor" : [ 0.866667, 0.866667, 0.866667, 1.0 ],
					"triscale" : 0.9,
					"numinlets" : 1,
					"numoutlets" : 2,
					"fontsize" : 12.0
				}

			}
, 			{
				"box" : 				{
					"maxclass" : "newobj",
					"text" : "qmetro 100.",
					"patching_rect" : [ 15.0, 60.0, 85.0, 23.0 ],
					"outlettype" : [ "bang" ],
					"id" : "obj-15",
					"fontname" : "Geneva",
					"numinlets" : 2,
					"numoutlets" : 1,
					"fontsize" : 12.0
				}

			}
, 			{
				"box" : 				{
					"maxclass" : "newobj",
					"text" : "rate~ 320.",
					"patching_rect" : [ 405.0, 195.0, 75.0, 23.0 ],
					"outlettype" : [ "signal" ],
					"id" : "obj-16",
					"fontname" : "Geneva",
					"numinlets" : 2,
					"numoutlets" : 1,
					"fontsize" : 12.0
				}

			}
, 			{
				"box" : 				{
					"maxclass" : "newobj",
					"text" : "*~ 240.",
					"patching_rect" : [ 405.0, 240.0, 57.0, 23.0 ],
					"outlettype" : [ "signal" ],
					"id" : "obj-17",
					"fontname" : "Geneva",
					"numinlets" : 2,
					"numoutlets" : 1,
					"fontsize" : 12.0
				}

			}
, 			{
				"box" : 				{
					"maxclass" : "newobj",
					"text" : "*~ 320.",
					"patching_rect" : [ 345.0, 240.0, 57.0, 23.0 ],
					"outlettype" : [ "signal" ],
					"id" : "obj-18",
					"fontname" : "Geneva",
					"numinlets" : 2,
					"numoutlets" : 1,
					"fontsize" : 12.0
				}

			}
, 			{
				"box" : 				{
					"maxclass" : "newobj",
					"text" : "jit.poke~ soup 2 2",
					"patching_rect" : [ 255.0, 285.0, 119.0, 23.0 ],
					"outlettype" : [ "" ],
					"id" : "obj-19",
					"fontname" : "Geneva",
					"numinlets" : 3,
					"numoutlets" : 1,
					"fontsize" : 12.0
				}

			}
, 			{
				"box" : 				{
					"maxclass" : "newobj",
					"text" : "!/ 1000.",
					"patching_rect" : [ 345.0, 60.0, 61.0, 23.0 ],
					"outlettype" : [ "float" ],
					"id" : "obj-20",
					"fontname" : "Geneva",
					"numinlets" : 2,
					"numoutlets" : 1,
					"fontsize" : 12.0
				}

			}
, 			{
				"box" : 				{
					"maxclass" : "flonum",
					"patching_rect" : [ 345.0, 105.0, 51.0, 23.0 ],
					"outlettype" : [ "float", "bang" ],
					"id" : "obj-21",
					"fontname" : "Geneva",
					"htextcolor" : [ 0.870588, 0.870588, 0.870588, 1.0 ],
					"bgcolor" : [ 0.866667, 0.866667, 0.866667, 1.0 ],
					"triscale" : 0.9,
					"numinlets" : 1,
					"numoutlets" : 2,
					"fontsize" : 12.0
				}

			}
, 			{
				"box" : 				{
					"maxclass" : "newobj",
					"text" : "jit.rgb2luma",
					"patching_rect" : [ 30.0, 165.0, 84.0, 23.0 ],
					"outlettype" : [ "jit_matrix", "" ],
					"id" : "obj-22",
					"fontname" : "Geneva",
					"numinlets" : 1,
					"numoutlets" : 2,
					"fontsize" : 12.0
				}

			}
, 			{
				"box" : 				{
					"maxclass" : "newobj",
					"text" : "jit.matrix output 4 char 320 240",
					"patching_rect" : [ 30.0, 195.0, 210.0, 23.0 ],
					"outlettype" : [ "jit_matrix", "" ],
					"id" : "obj-23",
					"fontname" : "Geneva",
					"numinlets" : 1,
					"numoutlets" : 2,
					"fontsize" : 12.0
				}

			}
, 			{
				"box" : 				{
					"maxclass" : "message",
					"text" : "clear",
					"patching_rect" : [ 45.0, 90.0, 39.0, 21.0 ],
					"outlettype" : [ "" ],
					"id" : "obj-24",
					"fontname" : "Geneva",
					"numinlets" : 2,
					"numoutlets" : 1,
					"fontsize" : 12.0
				}

			}
, 			{
				"box" : 				{
					"maxclass" : "newobj",
					"text" : "phasor~ 10.",
					"patching_rect" : [ 345.0, 150.0, 82.0, 23.0 ],
					"outlettype" : [ "signal" ],
					"id" : "obj-25",
					"fontname" : "Geneva",
					"numinlets" : 2,
					"numoutlets" : 1,
					"fontsize" : 12.0
				}

			}
, 			{
				"box" : 				{
					"maxclass" : "scope~",
					"patching_rect" : [ 420.0, 315.0, 143.0, 95.0 ],
					"rounded" : 0,
					"id" : "obj-26",
					"bgcolor" : [ 0.529412, 0.529412, 0.529412, 1.0 ],
					"numinlets" : 2,
					"calccount" : 20,
					"numoutlets" : 0
				}

			}
, 			{
				"box" : 				{
					"maxclass" : "newobj",
					"text" : "jit.peek~ output 2 2",
					"patching_rect" : [ 375.0, 285.0, 128.0, 23.0 ],
					"outlettype" : [ "signal", "" ],
					"id" : "obj-27",
					"fontname" : "Geneva",
					"numinlets" : 2,
					"numoutlets" : 2,
					"fontsize" : 12.0
				}

			}
, 			{
				"box" : 				{
					"maxclass" : "toggle",
					"patching_rect" : [ 15.0, 15.0, 26.0, 26.0 ],
					"outlettype" : [ "int" ],
					"id" : "obj-29",
					"numinlets" : 1,
					"numoutlets" : 1
				}

			}
, 			{
				"box" : 				{
					"maxclass" : "button",
					"patching_rect" : [ 15.0, 90.0, 23.0, 23.0 ],
					"outlettype" : [ "bang" ],
					"id" : "obj-30",
					"numinlets" : 1,
					"numoutlets" : 1
				}

			}
, 			{
				"box" : 				{
					"maxclass" : "newobj",
					"text" : "jit.matrix soup 4 char 320 240",
					"patching_rect" : [ 15.0, 135.0, 199.0, 23.0 ],
					"outlettype" : [ "jit_matrix", "" ],
					"id" : "obj-31",
					"fontname" : "Geneva",
					"numinlets" : 1,
					"numoutlets" : 2,
					"fontsize" : 12.0
				}

			}
 ],
		"lines" : [ 			{
				"patchline" : 				{
					"source" : [ "obj-12", 0 ],
					"destination" : [ "obj-20", 0 ],
					"hidden" : 0,
					"midpoints" : [ 114.5, 48.5, 354.5, 48.5 ]
				}

			}
, 			{
				"patchline" : 				{
					"source" : [ "obj-27", 0 ],
					"destination" : [ "obj-34", 0 ],
					"hidden" : 0,
					"midpoints" : [  ]
				}

			}
, 			{
				"patchline" : 				{
					"source" : [ "obj-34", 0 ],
					"destination" : [ "obj-32", 1 ],
					"hidden" : 0,
					"midpoints" : [  ]
				}

			}
, 			{
				"patchline" : 				{
					"source" : [ "obj-34", 0 ],
					"destination" : [ "obj-32", 0 ],
					"hidden" : 0,
					"midpoints" : [  ]
				}

			}
, 			{
				"patchline" : 				{
					"source" : [ "obj-27", 0 ],
					"destination" : [ "obj-26", 0 ],
					"hidden" : 0,
					"midpoints" : [  ]
				}

			}
, 			{
				"patchline" : 				{
					"source" : [ "obj-25", 0 ],
					"destination" : [ "obj-16", 0 ],
					"hidden" : 0,
					"midpoints" : [  ]
				}

			}
, 			{
				"patchline" : 				{
					"source" : [ "obj-31", 0 ],
					"destination" : [ "obj-3", 0 ],
					"hidden" : 0,
					"midpoints" : [  ]
				}

			}
, 			{
				"patchline" : 				{
					"source" : [ "obj-1", 0 ],
					"destination" : [ "obj-3", 0 ],
					"hidden" : 0,
					"midpoints" : [ 144.5, 347.5, 24.5, 347.5 ]
				}

			}
, 			{
				"patchline" : 				{
					"source" : [ "obj-4", 0 ],
					"destination" : [ "obj-3", 0 ],
					"hidden" : 0,
					"midpoints" : [ 39.5, 347.5, 24.5, 347.5 ]
				}

			}
, 			{
				"patchline" : 				{
					"source" : [ "obj-24", 0 ],
					"destination" : [ "obj-31", 0 ],
					"hidden" : 0,
					"midpoints" : [  ]
				}

			}
, 			{
				"patchline" : 				{
					"source" : [ "obj-17", 0 ],
					"destination" : [ "obj-27", 1 ],
					"hidden" : 0,
					"midpoints" : [  ]
				}

			}
, 			{
				"patchline" : 				{
					"source" : [ "obj-16", 0 ],
					"destination" : [ "obj-17", 0 ],
					"hidden" : 0,
					"midpoints" : [  ]
				}

			}
, 			{
				"patchline" : 				{
					"source" : [ "obj-18", 0 ],
					"destination" : [ "obj-27", 0 ],
					"hidden" : 0,
					"midpoints" : [  ]
				}

			}
, 			{
				"patchline" : 				{
					"source" : [ "obj-17", 0 ],
					"destination" : [ "obj-19", 2 ],
					"hidden" : 0,
					"midpoints" : [  ]
				}

			}
, 			{
				"patchline" : 				{
					"source" : [ "obj-25", 0 ],
					"destination" : [ "obj-18", 0 ],
					"hidden" : 0,
					"midpoints" : [  ]
				}

			}
, 			{
				"patchline" : 				{
					"source" : [ "obj-21", 0 ],
					"destination" : [ "obj-25", 0 ],
					"hidden" : 0,
					"midpoints" : [  ]
				}

			}
, 			{
				"patchline" : 				{
					"source" : [ "obj-20", 0 ],
					"destination" : [ "obj-21", 0 ],
					"hidden" : 0,
					"midpoints" : [  ]
				}

			}
, 			{
				"patchline" : 				{
					"source" : [ "obj-18", 0 ],
					"destination" : [ "obj-19", 1 ],
					"hidden" : 0,
					"midpoints" : [  ]
				}

			}
, 			{
				"patchline" : 				{
					"source" : [ "obj-8", 0 ],
					"destination" : [ "obj-9", 1 ],
					"hidden" : 0,
					"midpoints" : [  ]
				}

			}
, 			{
				"patchline" : 				{
					"source" : [ "obj-9", 0 ],
					"destination" : [ "obj-19", 0 ],
					"hidden" : 0,
					"midpoints" : [  ]
				}

			}
, 			{
				"patchline" : 				{
					"source" : [ "obj-10", 0 ],
					"destination" : [ "obj-9", 0 ],
					"hidden" : 0,
					"midpoints" : [  ]
				}

			}
, 			{
				"patchline" : 				{
					"source" : [ "obj-7", 0 ],
					"destination" : [ "obj-10", 0 ],
					"hidden" : 0,
					"midpoints" : [  ]
				}

			}
, 			{
				"patchline" : 				{
					"source" : [ "obj-2", 0 ],
					"destination" : [ "obj-1", 0 ],
					"hidden" : 0,
					"midpoints" : [ 39.5, 310.0, 144.5, 310.0 ]
				}

			}
, 			{
				"patchline" : 				{
					"source" : [ "obj-12", 0 ],
					"destination" : [ "obj-15", 1 ],
					"hidden" : 0,
					"midpoints" : [ 114.5, 48.5, 90.5, 48.5 ]
				}

			}
, 			{
				"patchline" : 				{
					"source" : [ "obj-2", 0 ],
					"destination" : [ "obj-4", 0 ],
					"hidden" : 0,
					"midpoints" : [  ]
				}

			}
, 			{
				"patchline" : 				{
					"source" : [ "obj-5", 0 ],
					"destination" : [ "obj-2", 0 ],
					"hidden" : 0,
					"midpoints" : [  ]
				}

			}
, 			{
				"patchline" : 				{
					"source" : [ "obj-6", 0 ],
					"destination" : [ "obj-5", 0 ],
					"hidden" : 0,
					"midpoints" : [  ]
				}

			}
, 			{
				"patchline" : 				{
					"source" : [ "obj-22", 0 ],
					"destination" : [ "obj-23", 0 ],
					"hidden" : 0,
					"midpoints" : [  ]
				}

			}
, 			{
				"patchline" : 				{
					"source" : [ "obj-31", 0 ],
					"destination" : [ "obj-22", 0 ],
					"hidden" : 0,
					"midpoints" : [  ]
				}

			}
, 			{
				"patchline" : 				{
					"source" : [ "obj-30", 0 ],
					"destination" : [ "obj-31", 0 ],
					"hidden" : 0,
					"midpoints" : [  ]
				}

			}
, 			{
				"patchline" : 				{
					"source" : [ "obj-15", 0 ],
					"destination" : [ "obj-30", 0 ],
					"hidden" : 0,
					"midpoints" : [  ]
				}

			}
, 			{
				"patchline" : 				{
					"source" : [ "obj-29", 0 ],
					"destination" : [ "obj-15", 0 ],
					"hidden" : 0,
					"midpoints" : [  ]
				}

			}
 ]
	}

}
