#N canvas 1066 643 450 300 10;
#X msg 183 8 \; pd dsp 1;
#X msg 181 77 start;
#X msg 181 101 stop;
#X obj 92 135 writesf~ 2;
#X obj 91 74 adc~;
#X obj 91 42 tgl 15 0 empty empty empty 17 7 0 10 -262144 -1 -1 0 1
;
#X msg 181 51 open ~/Desktop/foo.aiff;
#X connect 1 0 3 0;
#X connect 2 0 3 0;
#X connect 4 0 3 0;
#X connect 4 1 3 1;
#X connect 5 0 4 0;
#X connect 6 0 3 0;
